STARTFONT 2.1
FONT -FontForge-Righteous-Book-R-Normal--36-360-72-72-P-194-ISO10646-1
SIZE 36 72 72
FONTBOUNDINGBOX 44 44 -5 -9
COMMENT "Generated by fontforge, http://fontforge.sourceforge.net"
COMMENT "Copyright (c) 2011 by Brian J. Bonislawsky DBA Astigmatic (AOETI) (astigma@astigmatic.com), with ReservedFont Name "Righteous""
STARTPROPERTIES 39
FOUNDRY "FontForge"
FAMILY_NAME "Righteous"
WEIGHT_NAME "Book"
SLANT "R"
SETWIDTH_NAME "Normal"
ADD_STYLE_NAME ""
PIXEL_SIZE 36
POINT_SIZE 360
RESOLUTION_X 72
RESOLUTION_Y 72
SPACING "P"
AVERAGE_WIDTH 194
CHARSET_REGISTRY "ISO10646"
CHARSET_ENCODING "1"
FONTNAME_REGISTRY ""
CHARSET_COLLECTIONS "ISO8859-2 ISO8859-9 ISO8859-4 ISO10646-1"
FONT_NAME "Righteous-Regular"
FACE_NAME "Righteous"
COPYRIGHT "Copyright (c) 2011 by Brian J. Bonislawsky DBA Astigmatic (AOETI) (astigma@astigmatic.com), with ReservedFont Name "Righteous""
FONT_VERSION "1.000"
FONT_ASCENT 29
FONT_DESCENT 7
UNDERLINE_POSITION -5
UNDERLINE_THICKNESS 1
X_HEIGHT 18
CAP_HEIGHT 24
RAW_ASCENT 799
RAW_DESCENT 200
NORM_SPACE 10
RELATIVE_WEIGHT 40
RELATIVE_SETWIDTH 50
SUPERSCRIPT_X 0
SUPERSCRIPT_Y 17
SUPERSCRIPT_SIZE 23
SUBSCRIPT_X 0
SUBSCRIPT_Y 5
SUBSCRIPT_SIZE 23
AVG_LOWERCASE_WIDTH 191
AVG_UPPERCASE_WIDTH 229
ENDPROPERTIES
CHARS 372
STARTCHAR space
ENCODING 32
SWIDTH 279 0
DWIDTH 10 0
BBX 1 1 0 0
BITMAP
00
ENDCHAR
STARTCHAR exclam
ENCODING 33
SWIDTH 274 0
DWIDTH 10 0
BBX 6 26 2 -1
BITMAP
FC
FC
FC
FC
FC
FC
FC
FC
FC
F8
78
78
78
78
78
78
78
78
78
00
30
F8
FC
FC
FC
78
ENDCHAR
STARTCHAR quotedbl
ENCODING 34
SWIDTH 409 0
DWIDTH 15 0
BBX 11 8 2 17
BITMAP
FBE0
FBE0
FBE0
FBE0
F3E0
F3C0
F3C0
F1C0
ENDCHAR
STARTCHAR numbersign
ENCODING 35
SWIDTH 561 0
DWIDTH 20 0
BBX 18 17 1 4
BITMAP
03CF80
03CF00
03CF00
078F00
1FFFC0
3FFFC0
3FFF80
0F1E00
0F3C00
0F3C00
7FFF00
7FFF00
7FFF00
FFFE00
3C7800
3CF000
3CF000
ENDCHAR
STARTCHAR dollar
ENCODING 36
SWIDTH 458 0
DWIDTH 16 0
BBX 13 25 2 0
BITMAP
0700
0700
0700
0700
0700
3FF0
7FF0
FFF0
F000
E000
FF80
FFF0
7FF0
3FF8
0078
0078
FFF8
FFF0
FFE0
FF80
0700
0700
0700
0700
0700
ENDCHAR
STARTCHAR percent
ENCODING 37
SWIDTH 685 0
DWIDTH 25 0
BBX 22 26 1 0
BITMAP
040000
3F80F0
7F81E0
7FC1E0
F1C3C0
F1C3C0
F1C780
F1C780
F1CF00
7BCE00
7FDE00
3F9C00
1F3C00
007800
007BF0
00F7F8
00F7FC
01EF3C
01EF1C
03CF1C
038F1C
078F1C
0F0F3C
0F07FC
1E07F8
1E03F0
ENDCHAR
STARTCHAR ampersand
ENCODING 38
SWIDTH 485 0
DWIDTH 17 0
BBX 13 25 2 0
BITMAP
0380
0380
0380
1FF8
3FF8
7FF8
7FF8
F000
F000
F000
F800
7FC0
3FC0
7FC0
FC00
F000
F000
F000
7FF8
7FF8
3FF8
1FF8
0380
0380
0380
ENDCHAR
STARTCHAR quotesingle
ENCODING 39
SWIDTH 238 0
DWIDTH 9 0
BBX 5 8 2 17
BITMAP
F8
F8
F8
F8
F0
F0
F0
F0
ENDCHAR
STARTCHAR parenleft
ENCODING 40
SWIDTH 351 0
DWIDTH 13 0
BBX 11 33 1 -4
BITMAP
07E0
07C0
0F80
1F80
1F00
3F00
3E00
3E00
7E00
7C00
7C00
7C00
FC00
FC00
F800
F800
F800
F800
FC00
7C00
7C00
7C00
7C00
7E00
3E00
3E00
3F00
1F00
1F80
0F80
0FC0
07C0
03E0
ENDCHAR
STARTCHAR parenright
ENCODING 41
SWIDTH 351 0
DWIDTH 13 0
BBX 10 33 1 -4
BITMAP
F800
FC00
7E00
3E00
3F00
1F00
1F80
0F80
0F80
0FC0
07C0
07C0
07C0
07C0
07C0
07C0
07C0
07C0
07C0
07C0
07C0
07C0
0FC0
0F80
0F80
1F80
1F00
3F00
3E00
7E00
7C00
FC00
F800
ENDCHAR
STARTCHAR asterisk
ENCODING 42
SWIDTH 589 0
DWIDTH 21 0
BBX 19 19 1 11
BITMAP
01F000
01F000
01F000
01F000
31F180
3DF7C0
7FFFC0
FFFFE0
7FFFC0
1FFF00
07FC00
07FC00
07FE00
0FFF00
1FBF80
3F9F80
1F0F00
0E0E00
040400
ENDCHAR
STARTCHAR plus
ENCODING 43
SWIDTH 485 0
DWIDTH 17 0
BBX 15 14 1 6
BITMAP
07C0
07C0
07C0
07C0
07C0
FFFE
FFFE
FFFE
FFFE
FFFE
07C0
07C0
07C0
07C0
ENDCHAR
STARTCHAR comma
ENCODING 44
SWIDTH 264 0
DWIDTH 10 0
BBX 6 9 2 -4
BITMAP
70
F8
FC
FC
FC
78
38
38
70
ENDCHAR
STARTCHAR hyphen
ENCODING 45
SWIDTH 528 0
DWIDTH 19 0
BBX 15 5 2 10
BITMAP
FFFE
FFFE
FFFE
FFFE
FFFE
ENDCHAR
STARTCHAR period
ENCODING 46
SWIDTH 263 0
DWIDTH 9 0
BBX 6 6 2 -1
BITMAP
70
F8
FC
FC
F8
78
ENDCHAR
STARTCHAR slash
ENCODING 47
SWIDTH 490 0
DWIDTH 18 0
BBX 15 25 1 0
BITMAP
003E
003E
007E
007C
00FC
00F8
00F8
01F0
01F0
03F0
03E0
03E0
07C0
07C0
0FC0
0F80
0F80
1F00
1F00
3E00
3E00
7E00
7C00
7C00
F800
ENDCHAR
STARTCHAR zero
ENCODING 48
SWIDTH 642 0
DWIDTH 23 0
BBX 21 26 1 0
BITMAP
002000
03FE00
0FFF80
1FFFC0
1FFFE0
3F8FE0
3E03F0
7C01F0
7C01F0
7C01F0
7C00F0
7800F8
F800F8
F800F8
F800F8
7800F8
7C00F0
7C01F0
7C01F0
7E01F0
3E03E0
3F8FE0
1FFFC0
1FFFC0
07FF80
03FE00
ENDCHAR
STARTCHAR one
ENCODING 49
SWIDTH 317 0
DWIDTH 11 0
BBX 8 25 1 0
BITMAP
FF
FF
FF
FF
FF
1F
1F
1F
1F
1F
1F
1F
1F
1F
1F
1F
1F
1F
1F
1F
1F
1F
1F
1F
1F
ENDCHAR
STARTCHAR two
ENCODING 50
SWIDTH 570 0
DWIDTH 21 0
BBX 17 25 2 0
BITMAP
7FF800
7FFC00
7FFE00
7FFF00
7FFF80
001F80
000F80
000F80
000F80
001F80
0FFF80
3FFF00
7FFE00
7FFC00
FFF000
FC0000
F80000
F80000
F80000
F80000
FFFF80
FFFF80
FFFF80
FFFF80
FFFF80
ENDCHAR
STARTCHAR three
ENCODING 51
SWIDTH 586 0
DWIDTH 21 0
BBX 17 25 2 0
BITMAP
FFF800
FFFE00
FFFF00
FFFF00
FFFF80
000F80
000F80
000F80
000F80
001F80
1FFF80
1FFF00
1FFF00
1FFF00
1FFF80
001F80
000F80
000F80
000F80
001F80
FFFF80
FFFF00
FFFE00
FFFC00
FFF000
ENDCHAR
STARTCHAR four
ENCODING 52
SWIDTH 630 0
DWIDTH 23 0
BBX 20 25 1 0
BITMAP
1F0000
1F0000
3F07C0
3E07C0
3E07C0
3E07C0
3E07C0
3E07C0
3E07C0
7C07C0
7C07C0
7C07C0
7C07C0
7C07C0
7C07C0
7FFFF0
FFFFF0
FFFFF0
FFFFF0
FFFFF0
0007C0
0007C0
0007C0
0007C0
0007C0
ENDCHAR
STARTCHAR five
ENCODING 53
SWIDTH 585 0
DWIDTH 21 0
BBX 18 25 2 0
BITMAP
7FFF80
7FFF80
7FFF80
7FFF80
7FFF80
7C0000
7C0000
FC0000
F80000
FFF000
FFFC00
FFFF00
FFFF00
FFFF80
001F80
000FC0
0007C0
0007C0
000FC0
000FC0
FFFF80
FFFF80
FFFF00
FFFE00
FFF800
ENDCHAR
STARTCHAR six
ENCODING 54
SWIDTH 615 0
DWIDTH 22 0
BBX 20 26 1 -1
BITMAP
01F800
03F000
07E000
0FC000
1F8000
1F0000
3F7800
3FFF00
7FFF80
7FFFC0
7FFFE0
7F07E0
7E03E0
FC03F0
FC01F0
FC01F0
FC01F0
FC01F0
7E03F0
7E07E0
3FDFE0
3FFFC0
1FFF80
0FFF00
03FE00
00F000
ENDCHAR
STARTCHAR seven
ENCODING 55
SWIDTH 516 0
DWIDTH 19 0
BBX 17 25 1 0
BITMAP
FFFF80
FFFF80
FFFF80
FFFF00
FFFF00
003F00
003E00
003E00
007E00
007C00
007C00
00FC00
00F800
00F800
01F800
01F000
03F000
03E000
03E000
07E000
07C000
07C000
0FC000
0F8000
0F8000
ENDCHAR
STARTCHAR eight
ENCODING 56
SWIDTH 618 0
DWIDTH 22 0
BBX 20 27 1 -1
BITMAP
01F800
07FE00
0FFF80
1FFF80
3FFFC0
3F0FC0
3E07E0
3E03E0
3E07C0
3E07C0
1FDFC0
1FFF80
0FFF00
1FFFC0
3FFFE0
7E07E0
7C03F0
F801F0
F801F0
F801F0
FC03F0
7E07E0
7FFFE0
3FFFC0
1FFF80
07FE00
00F000
ENDCHAR
STARTCHAR nine
ENCODING 57
SWIDTH 616 0
DWIDTH 22 0
BBX 20 26 1 0
BITMAP
01F800
07FE00
1FFF00
1FFF80
3FFFC0
7F0FE0
7E07E0
7C03E0
FC03F0
F803F0
F803F0
F803F0
FC03F0
7E07F0
7F0FE0
3FFFE0
3FFFE0
1FFFE0
07FFC0
00CFC0
000F80
001F80
003F00
007E00
00FC00
01F800
ENDCHAR
STARTCHAR colon
ENCODING 58
SWIDTH 276 0
DWIDTH 10 0
BBX 6 16 2 -1
BITMAP
30
FC
FC
FC
FC
78
00
00
00
00
30
78
FC
FC
FC
78
ENDCHAR
STARTCHAR semicolon
ENCODING 59
SWIDTH 276 0
DWIDTH 10 0
BBX 6 19 2 -4
BITMAP
30
FC
FC
FC
FC
78
00
00
00
00
30
78
FC
FC
FC
7C
38
38
30
ENDCHAR
STARTCHAR less
ENCODING 60
SWIDTH 478 0
DWIDTH 17 0
BBX 14 20 1 4
BITMAP
0030
0078
00FC
01FC
03F8
07F0
0FE0
1FC0
3F80
7F00
FE00
7F80
3FC0
1FE0
0FF0
07F8
03FC
00FC
0078
0030
ENDCHAR
STARTCHAR equal
ENCODING 61
SWIDTH 539 0
DWIDTH 19 0
BBX 15 12 2 7
BITMAP
FFFE
FFFE
FFFE
FFFE
FFFE
0000
0000
FFFE
FFFE
FFFE
FFFE
FFFE
ENDCHAR
STARTCHAR greater
ENCODING 62
SWIDTH 478 0
DWIDTH 17 0
BBX 14 22 2 3
BITMAP
1000
3800
7800
FC00
FE00
7F00
3F80
1FC0
0FE0
07F0
03F8
01FC
03F8
07F0
1FE0
3FC0
7F80
FF00
FE00
7C00
3800
1000
ENDCHAR
STARTCHAR question
ENCODING 63
SWIDTH 603 0
DWIDTH 22 0
BBX 20 26 1 -1
BITMAP
FFFE00
FFFF80
FFFFC0
FFFFC0
FFFFE0
0003E0
0003E0
0003F0
0003E0
0007E0
007FE0
01FFC0
03FF80
03FF00
07FC00
07C000
07C000
07C000
07C000
000000
038000
07C000
0FC000
0FC000
07C000
078000
ENDCHAR
STARTCHAR at
ENCODING 64
SWIDTH 629 0
DWIDTH 23 0
BBX 20 20 1 -1
BITMAP
03FE00
0FFF80
1FFFC0
3F07E0
3C01E0
78EEF0
79FEF0
73FE70
F3DE70
F38E70
F39E70
73FFF0
71FFF0
78FFF0
3C0000
3E0000
1FF800
0FF800
03F800
007000
ENDCHAR
STARTCHAR A
ENCODING 65
SWIDTH 673 0
DWIDTH 24 0
BBX 20 25 2 0
BITMAP
03FC00
07FF00
1FFF80
3FFFC0
3FFFE0
7F07E0
7C03F0
FC01F0
F801F0
F801F0
F801F0
F801F0
F801F0
F801F0
F801F0
FFFFF0
FFFFF0
FFFFF0
FFFFF0
FFFFF0
F801F0
F801F0
F801F0
F801F0
F801F0
ENDCHAR
STARTCHAR B
ENCODING 66
SWIDTH 666 0
DWIDTH 24 0
BBX 21 25 2 0
BITMAP
FFFF00
FFFFC0
FFFFE0
FFFFE0
FFFFF0
F801F0
F801F0
F801F8
F801F0
F803F0
FFFFF0
FFFFE0
FFFFC0
FFFFE0
FFFFF0
F801F0
F801F0
F801F8
F801F0
F803F0
FFFFF0
FFFFE0
FFFFE0
FFFF80
FFFF00
ENDCHAR
STARTCHAR C
ENCODING 67
SWIDTH 640 0
DWIDTH 23 0
BBX 21 27 1 -1
BITMAP
000400
00FFC0
03FFF0
07FFF8
0FFFF8
1FFFF0
3F8070
7F0020
7E0000
7C0000
FC0000
F80000
F80000
F80000
F80000
F80000
FC0000
7C0000
7E0000
7F0020
3F8070
1FFFF0
0FFFF8
07FFF8
03FFF0
00FFC0
000400
ENDCHAR
STARTCHAR D
ENCODING 68
SWIDTH 653 0
DWIDTH 24 0
BBX 21 25 2 0
BITMAP
FFF000
FFFC00
FFFF00
FFFF80
FFFFC0
F81FC0
F807E0
F803F0
F803F0
F801F0
F801F0
F801F0
F801F8
F801F0
F801F0
F801F0
F803F0
F803E0
F80FE0
F83FC0
FFFFC0
FFFF80
FFFE00
FFFC00
FFE000
ENDCHAR
STARTCHAR E
ENCODING 69
SWIDTH 578 0
DWIDTH 21 0
BBX 18 25 2 0
BITMAP
FFFFC0
FFFFC0
FFFFC0
FFFFC0
FFFFC0
F80000
F80000
F80000
F80000
F80000
FFFC00
FFFC00
FFFC00
FFFC00
FFFC00
F80000
F80000
F80000
F80000
F80000
FFFFC0
FFFFC0
FFFFC0
FFFFC0
FFFFC0
ENDCHAR
STARTCHAR F
ENCODING 70
SWIDTH 562 0
DWIDTH 20 0
BBX 18 25 2 0
BITMAP
FFFFC0
FFFFC0
FFFFC0
FFFFC0
FFFFC0
F80000
F80000
F80000
F80000
F80000
FFF800
FFF800
FFF800
FFF800
FFF800
F80000
F80000
F80000
F80000
F80000
F80000
F80000
F80000
F80000
F80000
ENDCHAR
STARTCHAR G
ENCODING 71
SWIDTH 665 0
DWIDTH 24 0
BBX 21 26 1 -1
BITMAP
00FFC0
03FFF0
07FFF8
0FFFF8
1FFFF0
3F8070
7F0020
7E0000
7C0000
FC0000
F80000
F80000
F80078
F80078
F80078
FC0078
7C0078
7E0078
7F0078
3F8078
1FFFF8
0FFFF8
07FFF8
03FFF0
00FFC0
000400
ENDCHAR
STARTCHAR H
ENCODING 72
SWIDTH 689 0
DWIDTH 25 0
BBX 21 25 2 0
BITMAP
F801F8
F801F8
F801F8
F801F8
F801F8
F801F8
F801F8
F801F8
F801F8
F801F8
FFFFF8
FFFFF8
FFFFF8
FFFFF8
FFFFF8
F801F8
F801F8
F801F8
F801F8
F801F8
F801F8
F801F8
F801F8
F801F8
F801F8
ENDCHAR
STARTCHAR I
ENCODING 73
SWIDTH 270 0
DWIDTH 10 0
BBX 5 25 2 0
BITMAP
F8
F8
F8
F8
F8
F8
F8
F8
F8
F8
F8
F8
F8
F8
F8
F8
F8
F8
F8
F8
F8
F8
F8
F8
F8
ENDCHAR
STARTCHAR J
ENCODING 74
SWIDTH 416 0
DWIDTH 15 0
BBX 13 25 0 0
BITMAP
00F8
00F8
00F8
00F8
00F8
00F8
00F8
00F8
00F8
00F8
00F8
00F8
00F8
00F8
00F8
00F8
00F8
01F8
03F0
87F0
FFE0
FFE0
FFC0
FF00
FC00
ENDCHAR
STARTCHAR K
ENCODING 75
SWIDTH 625 0
DWIDTH 23 0
BBX 20 25 2 0
BITMAP
F803F0
F807E0
F807C0
F80FC0
F81F80
F83F00
F83E00
F87E00
F8FC00
F8F800
F9F800
FBF800
FFFC00
FFFC00
FFFE00
FFBE00
FF3F00
FE1F00
FC1F80
FC0F80
F80FC0
F807E0
F807E0
F803F0
F803F0
ENDCHAR
STARTCHAR L
ENCODING 76
SWIDTH 562 0
DWIDTH 20 0
BBX 18 25 2 0
BITMAP
F80000
F80000
F80000
F80000
F80000
F80000
F80000
F80000
F80000
F80000
F80000
F80000
F80000
F80000
F80000
F80000
F80000
F80000
F80000
F80000
FFFFC0
FFFFC0
FFFFC0
FFFFC0
FFFFC0
ENDCHAR
STARTCHAR M
ENCODING 77
SWIDTH 819 0
DWIDTH 30 0
BBX 25 26 2 0
BITMAP
01004000
0FF3FC00
1FFFFE00
3FFFFF00
7FFFFF00
7FFFFF80
FC3F0F80
F83E0F80
F83E0F80
F83E0F80
F83E0F80
F83E0F80
F83E0F80
F83E0F80
F83E0F80
F83E0F80
F83E0F80
F83E0F80
F83E0F80
F83E0F80
F83E0F80
F83E0F80
F83E0F80
F83E0F80
F83E0F80
F83E0F80
ENDCHAR
STARTCHAR N
ENCODING 78
SWIDTH 689 0
DWIDTH 25 0
BBX 21 25 2 0
BITMAP
FC01F8
FE01F8
FE01F8
FF01F8
FF01F8
FF81F8
FFC1F8
FFC1F8
FFE1F8
FBE1F8
F9F1F8
F9F9F8
F8F9F8
F8FDF8
F87DF8
F83FF8
F83FF8
F81FF8
F81FF8
F80FF8
F80FF8
F807F8
F803F8
F803F8
F801F8
ENDCHAR
STARTCHAR O
ENCODING 79
SWIDTH 777 0
DWIDTH 28 0
BBX 26 25 1 0
BITMAP
00FFC000
03FFF000
07FFF800
0FFFFC00
1FFFFE00
3F807F00
7F003F80
7E001F80
7C000F80
FC000FC0
F80007C0
F80007C0
F80007C0
F80007C0
F80007C0
FC000FC0
7C000F80
7E001F80
7F003F80
3F807F00
1FFFFE00
0FFFFC00
07FFF800
03FFF000
00FFC000
ENDCHAR
STARTCHAR P
ENCODING 80
SWIDTH 642 0
DWIDTH 23 0
BBX 20 25 2 0
BITMAP
FFFC00
FFFF00
FFFF80
FFFFC0
FFFFE0
F807E0
F803F0
F801F0
F801F0
F801F0
F801F0
F801F0
F801F0
F803F0
F80FE0
FFFFE0
FFFFC0
FFFF80
FFFF00
FFF800
F80000
F80000
F80000
F80000
F80000
ENDCHAR
STARTCHAR Q
ENCODING 81
SWIDTH 777 0
DWIDTH 28 0
BBX 26 30 1 -5
BITMAP
00FFC000
03FFF000
07FFF800
0FFFFC00
1FFFFE00
3F807F00
7F003F80
7E001F80
7C000F80
FC000FC0
F80007C0
F80007C0
F80007C0
F80007C0
F80007C0
FC000FC0
7C000F80
7E001F80
7F003F80
3F807F00
1FFFFE00
0FFFFC00
07FFF800
03FFF000
00FFE000
0007F000
0001F000
0001F800
0000FC00
00007C00
ENDCHAR
STARTCHAR R
ENCODING 82
SWIDTH 651 0
DWIDTH 23 0
BBX 20 25 2 0
BITMAP
FFFC00
FFFF00
FFFF80
FFFFC0
FFFFE0
F807E0
F803F0
F801F0
F801F0
F801F0
F801F0
F801F0
F801F0
F803F0
F80FE0
FFFFE0
FFFFC0
FFFF80
FFFF00
FFFF00
F81F80
F80F80
F80FC0
F807C0
F807C0
ENDCHAR
STARTCHAR S
ENCODING 83
SWIDTH 610 0
DWIDTH 22 0
BBX 20 25 1 0
BITMAP
0FFFE0
1FFFE0
3FFFE0
7FFFE0
FFFFE0
FC0000
F80000
F80000
F80000
FC0000
7FFE00
7FFF80
3FFFC0
1FFFE0
07FFE0
0003F0
0001F0
0001F0
0001F0
0003F0
7FFFE0
7FFFE0
7FFFC0
7FFF80
7FFE00
ENDCHAR
STARTCHAR T
ENCODING 84
SWIDTH 578 0
DWIDTH 21 0
BBX 20 25 0 0
BITMAP
FFFFF0
FFFFF0
FFFFF0
FFFFF0
FFFFF0
00F800
00F800
00F800
00F800
00F800
00F800
00F800
00F800
00F800
00F800
00F800
00F800
00F800
00F800
00F800
00F800
00F800
00F800
00F800
00F800
ENDCHAR
STARTCHAR U
ENCODING 85
SWIDTH 673 0
DWIDTH 24 0
BBX 20 25 2 0
BITMAP
F801F0
F801F0
F801F0
F801F0
F801F0
F801F0
F801F0
F801F0
F801F0
F801F0
F801F0
F801F0
F801F0
F801F0
F801F0
F801F0
F801F0
FC03F0
7E03F0
7F0FE0
3FFFE0
3FFFC0
1FFF80
07FE00
01F800
ENDCHAR
STARTCHAR V
ENCODING 86
SWIDTH 602 0
DWIDTH 22 0
BBX 21 25 0 0
BITMAP
FC00F8
7C01F8
7E01F8
7E01F0
3E03F0
3E03F0
3F03E0
1F03E0
1F07E0
1F87C0
0F87C0
0F8FC0
0FCF80
07CF80
07DF80
07DF00
03FF00
03FF00
03FE00
03FE00
01FE00
01FC00
01FC00
00FC00
00FC00
ENDCHAR
STARTCHAR W
ENCODING 87
SWIDTH 819 0
DWIDTH 30 0
BBX 25 25 2 0
BITMAP
F83E0F80
F83E0F80
F83E0F80
F83E0F80
F83E0F80
F83E0F80
F83E0F80
F83E0F80
F83E0F80
F83E0F80
F83E0F80
F83E0F80
F83E0F80
F83E0F80
F83E0F80
F83E0F80
F83E0F80
F83E0F80
F83E0F80
FC3F0F80
7FFFFF80
7FFFFF00
3FFFFF00
1FFFFE00
0FE3F800
ENDCHAR
STARTCHAR X
ENCODING 88
SWIDTH 608 0
DWIDTH 22 0
BBX 22 25 0 0
BITMAP
FE01F8
7E01F8
3F03F0
3F03F0
1F87E0
0F8FC0
0FCFC0
07FF80
07FF80
03FF00
01FE00
01FE00
00FC00
01FE00
03FE00
03FF00
07FF80
07FF80
0FCFC0
1F87E0
1F87E0
3F03F0
3F03F0
7E01F8
FC01FC
ENDCHAR
STARTCHAR Y
ENCODING 89
SWIDTH 620 0
DWIDTH 22 0
BBX 20 25 1 0
BITMAP
F801F0
F801F0
F801F0
F801F0
F801F0
F801F0
F801F0
F801F0
F801F0
FC01F0
7C03F0
7E07E0
7FFFE0
3FFFC0
1FFF80
0FFF00
03FC00
00F800
00F800
00F800
00F800
00F800
00F800
00F800
00F800
ENDCHAR
STARTCHAR Z
ENCODING 90
SWIDTH 586 0
DWIDTH 21 0
BBX 19 25 1 0
BITMAP
FFFFE0
FFFFC0
FFFFC0
FFFF80
FFFF80
003F00
003F00
007E00
007E00
00FC00
00FC00
01F800
03F800
03F000
07F000
07E000
0FC000
0FC000
1F8000
1F8000
3FFFE0
3FFFE0
7FFFE0
7FFFE0
FFFFE0
ENDCHAR
STARTCHAR bracketleft
ENCODING 91
SWIDTH 380 0
DWIDTH 14 0
BBX 10 33 2 -4
BITMAP
FFC0
FFC0
FFC0
FFC0
FFC0
F800
F800
F800
F800
F800
F800
F800
F800
F800
F800
F800
F800
F800
F800
F800
F800
F800
F800
F800
F800
F800
F800
F800
FFC0
FFC0
FFC0
FFC0
FFC0
ENDCHAR
STARTCHAR backslash
ENCODING 92
SWIDTH 490 0
DWIDTH 18 0
BBX 15 25 1 0
BITMAP
F800
7C00
7C00
3E00
3E00
3F00
1F00
1F00
0F80
0F80
0FC0
07C0
07C0
03E0
03E0
01F0
01F0
01F8
00F8
00F8
007C
007C
007E
003E
003E
ENDCHAR
STARTCHAR bracketright
ENCODING 93
SWIDTH 380 0
DWIDTH 14 0
BBX 10 33 1 -4
BITMAP
FFC0
FFC0
FFC0
FFC0
FFC0
07C0
07C0
07C0
07C0
07C0
07C0
07C0
07C0
07C0
07C0
07C0
07C0
07C0
07C0
07C0
07C0
07C0
07C0
07C0
07C0
07C0
07C0
07C0
FFC0
FFC0
FFC0
FFC0
FFC0
ENDCHAR
STARTCHAR asciicircum
ENCODING 94
SWIDTH 293 0
DWIDTH 11 0
BBX 10 7 0 18
BITMAP
0C00
1E00
3F00
7F80
FFC0
73C0
2180
ENDCHAR
STARTCHAR underscore
ENCODING 95
SWIDTH 598 0
DWIDTH 22 0
BBX 15 4 3 -8
BITMAP
FFFE
FFFE
FFFE
FFFE
ENDCHAR
STARTCHAR grave
ENCODING 96
SWIDTH 225 0
DWIDTH 8 0
BBX 8 7 0 18
BITMAP
30
38
7C
FE
3F
1F
06
ENDCHAR
STARTCHAR a
ENCODING 97
SWIDTH 607 0
DWIDTH 22 0
BBX 19 20 1 0
BITMAP
004000
07F820
1FFE60
3FFFE0
3FFFE0
7F3FE0
7C0FE0
F807E0
F803E0
F803E0
F803E0
F803E0
F803E0
FC07E0
7C0FE0
7FBFE0
3FFFE0
3FFFE0
1FFE60
07F820
ENDCHAR
STARTCHAR b
ENCODING 98
SWIDTH 597 0
DWIDTH 22 0
BBX 20 26 1 0
BITMAP
F80000
F80000
F80000
F80000
F80000
F80000
F82000
FBFC00
FFFF00
FFFF80
FFFFC0
FF9FC0
FE07E0
FC03E0
FC03E0
F801F0
F801F0
F801F0
7C03E0
7C03E0
7E07E0
3FFFC0
3FFFC0
1FFF80
0FFF00
03FC00
ENDCHAR
STARTCHAR c
ENCODING 99
SWIDTH 521 0
DWIDTH 19 0
BBX 17 20 1 0
BITMAP
004000
07FC00
0FFE00
1FFF00
3FFF80
7F1F80
7C0F00
FC0600
F80000
F80000
F80000
F80000
F80000
FC0400
7C0E00
7FBF00
3FFF80
1FFF00
0FFE00
07F800
ENDCHAR
STARTCHAR d
ENCODING 100
SWIDTH 606 0
DWIDTH 22 0
BBX 19 26 1 0
BITMAP
0003E0
0003E0
0003E0
0003E0
0003E0
0003E0
0043E0
07FBE0
0FFFE0
3FFFE0
3FFFE0
7F3FE0
7C0FE0
F807E0
F803E0
F803E0
F803E0
F803E0
F803E0
FC07E0
7E0FE0
7FBFE0
3FFFE0
1FFFE0
0FFE60
07F860
ENDCHAR
STARTCHAR e
ENCODING 101
SWIDTH 524 0
DWIDTH 19 0
BBX 17 20 1 0
BITMAP
004000
07FC00
1FFE00
3FFF00
3FFF80
7F1F80
7C3F00
F87E00
F8FC00
F8F800
F9F000
FBF000
FFE000
FFC600
7F8F00
7FBF00
3FFF80
1FFF00
0FFE00
07F800
ENDCHAR
STARTCHAR f
ENCODING 102
SWIDTH 395 0
DWIDTH 14 0
BBX 14 28 1 0
BITMAP
01FC
03FC
0FFC
0FFC
1FFC
1F00
3E00
3E00
3E00
FFF8
FFF8
FFF8
FFF8
FFF8
3E00
3E00
3E00
3E00
3E00
3E00
3E00
3E00
3E00
3E00
3E00
3E00
3E00
3E00
ENDCHAR
STARTCHAR g
ENCODING 103
SWIDTH 607 0
DWIDTH 22 0
BBX 19 27 1 -7
BITMAP
004000
07F820
0FFE60
3FFFE0
3FFFE0
7F3FE0
7C0FE0
F807E0
F803E0
F803E0
F803E0
F803E0
F803E0
FC07E0
7C0FE0
7FBFE0
3FFFE0
3FFFE0
0FFFE0
07FBE0
0007E0
000FC0
01FFC0
01FF80
01FF00
01FE00
01F800
ENDCHAR
STARTCHAR h
ENCODING 104
SWIDTH 562 0
DWIDTH 20 0
BBX 17 26 2 0
BITMAP
F80000
F80000
F80000
F80000
F80000
F80000
F80000
FFF000
FFF800
FFFC00
FFFE00
FFFF00
FC1F00
F81F00
F80F80
F80F80
F80F80
F80F80
F80F80
F80F80
F80F80
F80F80
F80F80
F80F80
F80F80
F80F80
ENDCHAR
STARTCHAR i
ENCODING 105
SWIDTH 235 0
DWIDTH 8 0
BBX 6 27 1 0
BITMAP
78
FC
FC
FC
FC
78
00
00
7C
7C
7C
7C
7C
7C
7C
7C
7C
7C
7C
7C
7C
7C
7C
7C
7C
7C
7C
ENDCHAR
STARTCHAR j
ENCODING 106
SWIDTH 237 0
DWIDTH 9 0
BBX 13 34 -5 -7
BITMAP
01E0
03F0
03F0
03F8
03F0
01E0
0000
0000
01F0
01F0
01F0
01F0
01F0
01F0
01F0
01F0
01F0
01F0
01F0
01F0
01F0
01F0
01F0
01F0
01F0
01F0
03F0
03E0
07E0
FFC0
FFC0
FF80
FF00
FC00
ENDCHAR
STARTCHAR k
ENCODING 107
SWIDTH 539 0
DWIDTH 19 0
BBX 17 26 2 0
BITMAP
F80000
F80000
F80000
F80000
F80000
F80000
F80000
F80F80
F81F00
F83F00
F87E00
F8FC00
F8F800
F9F000
FBF000
FFE000
FFF000
FFF800
FFF800
FFFC00
FE7C00
FC7E00
F83E00
F83F00
F81F00
F80F80
ENDCHAR
STARTCHAR l
ENCODING 108
SWIDTH 235 0
DWIDTH 8 0
BBX 5 26 2 0
BITMAP
F8
F8
F8
F8
F8
F8
F8
F8
F8
F8
F8
F8
F8
F8
F8
F8
F8
F8
F8
F8
F8
F8
F8
F8
F8
F8
ENDCHAR
STARTCHAR m
ENCODING 109
SWIDTH 762 0
DWIDTH 27 0
BBX 24 19 2 0
BITMAP
8FC3F0
FFEFF8
FFFFFC
FFFFFE
FFFFFE
F87E3F
F87C1F
F87C1F
F87C1F
F87C1F
F87C1F
F87C1F
F87C1F
F87C1F
F87C1F
F87C1F
F87C1F
F87C1F
F87C1F
ENDCHAR
STARTCHAR n
ENCODING 110
SWIDTH 562 0
DWIDTH 20 0
BBX 17 19 2 0
BITMAP
87F000
DFF800
FFFC00
FFFE00
FFFF00
FC1F00
F81F00
F80F80
F80F80
F80F80
F80F80
F80F80
F80F80
F80F80
F80F80
F80F80
F80F80
F80F80
F80F80
ENDCHAR
STARTCHAR o
ENCODING 111
SWIDTH 579 0
DWIDTH 21 0
BBX 19 20 1 0
BITMAP
004000
07FC00
0FFE00
3FFF80
3FFF80
7F3FC0
7C07C0
F807E0
F803E0
F803E0
F803E0
F803E0
F803E0
FC07E0
7E0FC0
7FBFC0
3FFF80
1FFF00
0FFE00
07F800
ENDCHAR
STARTCHAR p
ENCODING 112
SWIDTH 608 0
DWIDTH 22 0
BBX 19 27 2 -7
BITMAP
004000
83FC00
CFFE00
FFFF80
FFFF80
FF1FC0
FC07C0
F807E0
F803E0
F803E0
F803E0
F803E0
F803E0
FC07E0
FE0FC0
FFBFC0
FFFF80
FFFF80
FFFE00
FBFC00
F80000
F80000
F80000
F80000
F80000
F80000
F80000
ENDCHAR
STARTCHAR q
ENCODING 113
SWIDTH 607 0
DWIDTH 22 0
BBX 19 27 1 -7
BITMAP
004000
07F820
1FFE60
3FFFE0
3FFFE0
7F3FE0
7C0FE0
F807E0
F803E0
F803E0
F803E0
F803E0
F803E0
FC07E0
7C0FE0
7FBFE0
3FFFE0
1FFFE0
0FFFE0
07FBE0
0003E0
0003E0
0003E0
0003E0
0003E0
0003E0
0003E0
ENDCHAR
STARTCHAR r
ENCODING 114
SWIDTH 414 0
DWIDTH 15 0
BBX 13 19 2 0
BITMAP
83F8
CFF8
FFF8
FFF8
FFF8
FC00
F800
F800
F800
F800
F800
F800
F800
F800
F800
F800
F800
F800
F800
ENDCHAR
STARTCHAR s
ENCODING 115
SWIDTH 523 0
DWIDTH 19 0
BBX 17 19 1 0
BITMAP
07FF00
3FFF00
7FFF00
7FFF00
FFFF00
F80000
F80000
FFF000
7FFE00
7FFF00
3FFF80
1FFF80
000F80
000F80
FFFF80
FFFF80
FFFF00
FFFE00
FFFC00
ENDCHAR
STARTCHAR t
ENCODING 116
SWIDTH 437 0
DWIDTH 16 0
BBX 14 26 1 0
BITMAP
3E00
3E00
3E00
3E00
3E00
3E00
3E00
FFFC
FFFC
FFFC
FFFC
FFFC
3E00
3E00
3E00
3E00
3E00
3E00
3E00
3E00
3F00
1FFC
1FFC
0FFC
07FC
01FC
ENDCHAR
STARTCHAR u
ENCODING 117
SWIDTH 562 0
DWIDTH 20 0
BBX 16 19 2 0
BITMAP
F00F
F00F
F00F
F00F
F00F
F00F
F00F
F00F
F00F
F00F
F00F
F01F
F81F
F83F
FFFF
7FFF
3FFF
1FFB
0FE1
ENDCHAR
STARTCHAR v
ENCODING 118
SWIDTH 532 0
DWIDTH 19 0
BBX 19 19 0 0
BITMAP
FC03E0
7C07E0
7C07C0
7E0FC0
3E0FC0
3E0F80
3F1F80
1F1F00
1F1F00
0FBF00
0FBE00
0FBE00
07FC00
07FC00
07FC00
03F800
03F800
01F800
01F000
ENDCHAR
STARTCHAR w
ENCODING 119
SWIDTH 756 0
DWIDTH 27 0
BBX 24 19 2 0
BITMAP
F07C1F
F07C1F
F07C1F
F07C1F
F07C1F
F07C1F
F07C1F
F07C1F
F07C1F
F07C1F
F07C1F
F07C1F
F07C1F
F87C3E
FDFF7E
FFFFFE
7FFFFC
3FFFF8
1FC7F0
ENDCHAR
STARTCHAR x
ENCODING 120
SWIDTH 528 0
DWIDTH 19 0
BBX 19 19 0 0
BITMAP
FC07E0
7E0FC0
3E0F80
3F1F80
1FBF00
0FFE00
07FC00
07FC00
03F800
01F000
03F800
07FC00
07FE00
0FBE00
1FBF00
3F1F80
3E0F80
7E0FC0
FC07E0
ENDCHAR
STARTCHAR y
ENCODING 121
SWIDTH 562 0
DWIDTH 20 0
BBX 16 26 2 -7
BITMAP
F00F
F00F
F00F
F00F
F00F
F00F
F00F
F00F
F00F
F00F
F00F
F01F
F81F
F83F
FFFF
7FFF
3FFF
1FFF
0FFF
001F
003F
0FFE
0FFC
0FFC
0FF0
0FC0
ENDCHAR
STARTCHAR z
ENCODING 122
SWIDTH 481 0
DWIDTH 17 0
BBX 16 19 1 0
BITMAP
FFFE
FFFE
FFFC
FFFC
FFF8
01F8
01F0
03E0
03E0
07C0
07C0
0F80
1F80
1F00
3FFF
3FFF
7FFF
7FFF
FFFF
ENDCHAR
STARTCHAR braceleft
ENCODING 123
SWIDTH 466 0
DWIDTH 17 0
BBX 14 33 1 -4
BITMAP
00FC
03FC
07FC
07FC
0FFC
0F80
0F80
0F80
0F80
0F80
0F80
0F80
0F80
1F80
FF80
FF00
FE00
FF00
FF80
0F80
0F80
0F80
0F80
0F80
0F80
0F80
0F80
0F80
0FFC
07FC
07FC
03FC
007C
ENDCHAR
STARTCHAR bar
ENCODING 124
SWIDTH 267 0
DWIDTH 10 0
BBX 5 33 2 -4
BITMAP
F8
F8
F8
F8
F8
F8
F8
F8
F8
F8
F8
F8
F8
F8
F8
F8
F8
F8
F8
F8
F8
F8
F8
F8
F8
F8
F8
F8
F8
F8
F8
F8
F8
ENDCHAR
STARTCHAR braceright
ENCODING 125
SWIDTH 466 0
DWIDTH 17 0
BBX 15 33 1 -4
BITMAP
FE00
FF80
FFC0
FFC0
FFC0
07C0
07C0
07C0
07C0
07C0
07C0
07C0
07E0
03F0
03FE
01FE
00FE
01FE
03FE
03E0
07E0
07C0
07C0
07C0
07C0
07C0
07C0
07C0
FFC0
FFC0
FF80
FF00
FC00
ENDCHAR
STARTCHAR asciitilde
ENCODING 126
SWIDTH 451 0
DWIDTH 16 0
BBX 13 7 2 10
BITMAP
1010
7C70
FE78
FFF0
FFF0
F3F0
F1E0
ENDCHAR
STARTCHAR nonbreakingspace
ENCODING 160
SWIDTH 279 0
DWIDTH 10 0
BBX 1 1 0 0
BITMAP
00
ENDCHAR
STARTCHAR exclamdown
ENCODING 161
SWIDTH 274 0
DWIDTH 10 0
BBX 6 26 2 -5
BITMAP
78
FC
FC
FC
78
30
00
78
78
78
78
78
78
78
78
F8
F8
F8
FC
FC
FC
FC
FC
FC
FC
FC
ENDCHAR
STARTCHAR cent
ENCODING 162
SWIDTH 462 0
DWIDTH 17 0
BBX 14 25 1 0
BITMAP
03C0
03C0
03C0
03C0
07E0
0FF8
1FFC
3FFC
7C38
7810
7800
F000
F000
7800
7810
7C38
3FFC
1FFC
0FF0
03C0
03C0
03C0
03C0
03C0
03C0
ENDCHAR
STARTCHAR sterling
ENCODING 163
SWIDTH 681 0
DWIDTH 25 0
BBX 21 25 2 0
BITMAP
01F000
07F000
0FF000
0FF000
1FF000
1F0000
1F0000
1F0000
1F0000
1F0000
1F0000
FFE000
FFE000
FFE000
FFE000
1F0000
1F0000
1F00F8
1F00F8
1F01F8
1FFFF8
1FFFF0
1FFFE0
1FFFC0
1FFF00
ENDCHAR
STARTCHAR currency
ENCODING 164
SWIDTH 454 0
DWIDTH 16 0
BBX 14 14 1 5
BITMAP
6018
F7FC
FFFC
7FF8
3870
7838
7038
7038
3838
3C70
7FF8
FFFC
77BC
2018
ENDCHAR
STARTCHAR yen
ENCODING 165
SWIDTH 653 0
DWIDTH 24 0
BBX 20 25 2 0
BITMAP
F801F0
F801F0
F801F0
F801F0
F801F0
F801F0
F801F0
F801F0
F801F0
F803F0
FC03E0
7E07E0
7FFFC0
3FFFC0
1FFF80
0FFE00
7FFFE0
7FFFE0
7FFFE0
7FFFE0
01F000
01F000
01F000
01F000
01F000
ENDCHAR
STARTCHAR brokenbar
ENCODING 166
SWIDTH 269 0
DWIDTH 10 0
BBX 5 33 2 -4
BITMAP
F8
F8
F8
F8
F8
F8
F8
F8
F8
F8
F8
F8
F8
F8
F8
00
00
00
F8
F8
F8
F8
F8
F8
F8
F8
F8
F8
F8
F8
F8
F8
F8
ENDCHAR
STARTCHAR section
ENCODING 167
SWIDTH 569 0
DWIDTH 21 0
BBX 17 25 2 0
BITMAP
1FFE00
3FFE00
7FFE00
FFFE00
FFFE00
F80000
FFE000
FFFC00
7FFE00
7FFF00
FFFF80
F80F80
F80F80
FC1F80
FFFF80
7FFF00
3FFF00
1FFF80
001F80
000F80
FFFF80
FFFF00
FFFF00
FFFE00
FFF800
ENDCHAR
STARTCHAR dieresis
ENCODING 168
SWIDTH 300 0
DWIDTH 11 0
BBX 11 4 0 19
BITMAP
F1C0
F3E0
F1E0
71C0
ENDCHAR
STARTCHAR copyright
ENCODING 169
SWIDTH 655 0
DWIDTH 24 0
BBX 20 21 2 2
BITMAP
01F000
07FE00
1FFF00
3C0780
78E1C0
73FCE0
E7F8E0
EE0870
CE0070
CC0070
CC0070
CC0070
CE0070
EE0870
E7F8E0
73FCE0
38E3C0
3E0780
0FFF00
07FC00
00E000
ENDCHAR
STARTCHAR ordfeminine
ENCODING 170
SWIDTH 451 0
DWIDTH 16 0
BBX 12 17 2 9
BITMAP
0600
3FB0
7FF0
79F0
E0F0
E070
E070
E0F0
F0F0
7FF0
3FF0
1F30
0000
0000
0000
FFF0
FFF0
ENDCHAR
STARTCHAR guillemotleft
ENCODING 171
SWIDTH 704 0
DWIDTH 25 0
BBX 23 17 1 1
BITMAP
00C018
01E03C
03F07E
07E0FC
0FC1F8
1F83F0
3F07E0
7E0FC0
FC1F80
FE1FC0
7F0FE0
3F87F0
0FC3F8
07E1FC
03F0FE
01E03C
00C018
ENDCHAR
STARTCHAR logicalnot
ENCODING 172
SWIDTH 529 0
DWIDTH 19 0
BBX 15 8 2 7
BITMAP
FFFE
FFFE
FFFE
FFFE
FFFE
003E
003E
003E
ENDCHAR
STARTCHAR uni00AD
ENCODING 173
SWIDTH 418 0
DWIDTH 15 0
BBX 11 5 2 10
BITMAP
FFE0
FFE0
FFE0
FFE0
FFE0
ENDCHAR
STARTCHAR registered
ENCODING 174
SWIDTH 439 0
DWIDTH 16 0
BBX 13 13 1 12
BITMAP
0FC0
3CF0
7F30
6FD8
4C48
CC48
CCC8
4F88
6D98
6CF8
3870
1FE0
0700
ENDCHAR
STARTCHAR macron
ENCODING 175
SWIDTH 247 0
DWIDTH 9 0
BBX 9 4 0 19
BITMAP
FF80
FF80
FF80
FF80
ENDCHAR
STARTCHAR degree
ENCODING 176
SWIDTH 381 0
DWIDTH 14 0
BBX 11 11 1 14
BITMAP
0400
1F80
7FC0
7FE0
F9E0
F0E0
F0E0
F9E0
7FE0
3FC0
1F80
ENDCHAR
STARTCHAR plusminus
ENCODING 177
SWIDTH 516 0
DWIDTH 19 0
BBX 15 19 2 0
BITMAP
07C0
07C0
07C0
07C0
FFFE
FFFE
FFFE
FFFE
FFFE
07C0
07C0
07C0
0000
0000
FFFE
FFFE
FFFE
FFFE
FFFE
ENDCHAR
STARTCHAR twosuperior
ENCODING 178
SWIDTH 355 0
DWIDTH 13 0
BBX 9 12 2 13
BITMAP
FE00
FF00
FF80
0780
3F80
7F80
FF00
FC00
E000
FF80
FF80
FF80
ENDCHAR
STARTCHAR threesuperior
ENCODING 179
SWIDTH 354 0
DWIDTH 13 0
BBX 9 12 2 13
BITMAP
FE00
FF00
FF80
0380
7F80
7F80
7F80
7F80
0380
FF80
FF00
FE00
ENDCHAR
STARTCHAR acute
ENCODING 180
SWIDTH 225 0
DWIDTH 8 0
BBX 8 7 0 18
BITMAP
0C
1E
3E
7F
FE
78
60
ENDCHAR
STARTCHAR mu
ENCODING 181
SWIDTH 571 0
DWIDTH 21 0
BBX 17 27 2 -8
BITMAP
F80F80
F80F80
F80F80
F80F80
F80F80
F80F80
F80F80
F80F80
F80F80
F80F80
F80F80
F80F80
F80F80
FC1F80
FF7F80
FFFF80
FFFF80
FFF980
F7F180
F00000
F00000
F00000
F00000
F00000
F00000
F00000
F00000
ENDCHAR
STARTCHAR paragraph
ENCODING 182
SWIDTH 808 0
DWIDTH 29 0
BBX 26 25 1 0
BITMAP
01FFFFC0
07FFFFC0
0FFFFFC0
1FFFFFC0
3FFFFFC0
7F1F0FC0
7E1F0FC0
7C1F0FC0
FC1F0FC0
F81F0FC0
F81F0FC0
FC1F0FC0
7C1F0FC0
7E1F0FC0
7F1F0FC0
3FFF0FC0
1FFF0FC0
0FFF0FC0
07FF0FC0
01FF0FC0
001F0FC0
001F0FC0
001F0FC0
001F0FC0
001F0FC0
ENDCHAR
STARTCHAR periodcentered
ENCODING 183
SWIDTH 261 0
DWIDTH 9 0
BBX 6 6 2 10
BITMAP
20
F8
FC
FC
FC
78
ENDCHAR
STARTCHAR cedilla
ENCODING 184
SWIDTH 208 0
DWIDTH 7 0
BBX 7 9 0 -8
BITMAP
18
18
18
3E
0E
4E
FE
FE
7C
ENDCHAR
STARTCHAR onesuperior
ENCODING 185
SWIDTH 231 0
DWIDTH 8 0
BBX 4 12 2 13
BITMAP
F0
F0
F0
70
70
70
70
70
70
70
70
70
ENDCHAR
STARTCHAR ordmasculine
ENCODING 186
SWIDTH 432 0
DWIDTH 16 0
BBX 12 17 2 9
BITMAP
0600
3F80
7FC0
79E0
E0E0
E060
E070
E0E0
F0E0
7FE0
3FC0
1F80
0000
0000
0000
FFF0
FFF0
ENDCHAR
STARTCHAR guillemotright
ENCODING 187
SWIDTH 703 0
DWIDTH 25 0
BBX 22 18 2 0
BITMAP
200400
700E00
F83F00
FC1F80
7E0FC0
3F07E0
1F83F0
0FC1F8
07E0FC
07E0FC
0FC1F8
1F87F0
3F0FE0
FE1FC0
FC3F80
F81F00
700E00
200000
ENDCHAR
STARTCHAR onequarter
ENCODING 188
SWIDTH 648 0
DWIDTH 23 0
BBX 20 25 2 0
BITMAP
780780
780F00
780E00
381E00
381C00
383C00
387800
387800
38F000
38F000
39E000
39E000
03C000
039E00
079DE0
071DE0
0F1DE0
1E3DE0
1E3DE0
3C3FF0
3C3FF0
783FF0
703FF0
F001E0
E001E0
ENDCHAR
STARTCHAR onehalf
ENCODING 189
SWIDTH 637 0
DWIDTH 23 0
BBX 20 25 2 0
BITMAP
780780
780F00
780E00
381E00
381C00
383C00
387800
387800
38F000
38F000
39E000
39E000
03C000
039FC0
079FE0
071FE0
0F00F0
1E07F0
1E1FE0
3C1FC0
3C1C00
781C00
701FE0
F01FE0
E01FE0
ENDCHAR
STARTCHAR threequarters
ENCODING 190
SWIDTH 708 0
DWIDTH 26 0
BBX 22 25 2 0
BITMAP
FE01E0
FF03C0
FF03C0
078780
7F8780
7F0F00
7F0E00
7F9E00
079C00
FF3C00
FF7800
FE7800
00F000
00F780
01E7B8
01E738
03C738
038738
078738
070FFC
0F0FFC
1E0FFC
1E0FFC
3C0038
3C0038
ENDCHAR
STARTCHAR questiondown
ENCODING 191
SWIDTH 602 0
DWIDTH 22 0
BBX 19 26 1 -5
BITMAP
003E00
003E00
007E00
003E00
003E00
000800
000000
003E00
003E00
003E00
007E00
07FC00
1FFC00
3FF800
7FF000
7FC000
FC0000
F80000
F80000
F80000
FC0000
7FFFE0
7FFFE0
3FFFE0
1FFFE0
07FFE0
ENDCHAR
STARTCHAR Agrave
ENCODING 192
SWIDTH 673 0
DWIDTH 24 0
BBX 20 34 2 0
BITMAP
020000
070000
07C000
0FE000
07F000
01E000
006000
000000
000000
03FC00
07FF00
1FFF80
3FFFC0
3FFFE0
7F07E0
7C03F0
FC01F0
F801F0
F801F0
F801F0
F801F0
F801F0
F801F0
F801F0
FFFFF0
FFFFF0
FFFFF0
FFFFF0
FFFFF0
F801F0
F801F0
F801F0
F801F0
F801F0
ENDCHAR
STARTCHAR Aacute
ENCODING 193
SWIDTH 673 0
DWIDTH 24 0
BBX 20 34 2 0
BITMAP
000400
000E00
001F00
007F00
00FE00
007800
003000
000000
000000
03FC00
07FF00
1FFF80
3FFFC0
3FFFE0
7F07E0
7C03F0
FC01F0
F801F0
F801F0
F801F0
F801F0
F801F0
F801F0
F801F0
FFFFF0
FFFFF0
FFFFF0
FFFFF0
FFFFF0
F801F0
F801F0
F801F0
F801F0
F801F0
ENDCHAR
STARTCHAR Acircumflex
ENCODING 194
SWIDTH 673 0
DWIDTH 24 0
BBX 20 33 2 0
BITMAP
006000
00F000
01F800
03FC00
07FE00
039C00
010800
000000
03FC00
07FF00
1FFF80
3FFFC0
3FFFE0
7F07E0
7C03F0
FC01F0
F801F0
F801F0
F801F0
F801F0
F801F0
F801F0
F801F0
FFFFF0
FFFFF0
FFFFF0
FFFFF0
FFFFF0
F801F0
F801F0
F801F0
F801F0
F801F0
ENDCHAR
STARTCHAR Atilde
ENCODING 195
SWIDTH 673 0
DWIDTH 24 0
BBX 20 33 2 0
BITMAP
038700
07E700
0FFF00
0FFF00
0F3E00
071C00
000000
000000
03FC00
07FF00
1FFF80
3FFFC0
3FFFE0
7F07E0
7C03F0
FC01F0
F801F0
F801F0
F801F0
F801F0
F801F0
F801F0
F801F0
FFFFF0
FFFFF0
FFFFF0
FFFFF0
FFFFF0
F801F0
F801F0
F801F0
F801F0
F801F0
ENDCHAR
STARTCHAR Adieresis
ENCODING 196
SWIDTH 673 0
DWIDTH 24 0
BBX 20 30 2 0
BITMAP
078E00
079F00
079E00
030E00
000000
03FC00
07FF00
1FFF80
3FFFC0
3FFFE0
7F07E0
7C03F0
FC01F0
F801F0
F801F0
F801F0
F801F0
F801F0
F801F0
F801F0
FFFFF0
FFFFF0
FFFFF0
FFFFF0
FFFFF0
F801F0
F801F0
F801F0
F801F0
F801F0
ENDCHAR
STARTCHAR Aring
ENCODING 197
SWIDTH 673 0
DWIDTH 24 0
BBX 20 31 2 0
BITMAP
00F000
01F800
01D800
019C00
01F800
01F800
01FC00
07FF00
1FFF80
3FFFC0
3FFFE0
7F07E0
7C03F0
FC01F0
F801F0
F801F0
F801F0
F801F0
F801F0
F801F0
F801F0
FFFFF0
FFFFF0
FFFFF0
FFFFF0
FFFFF0
F801F0
F801F0
F801F0
F801F0
F801F0
ENDCHAR
STARTCHAR AE
ENCODING 198
SWIDTH 988 0
DWIDTH 36 0
BBX 32 25 2 0
BITMAP
03FFFFFF
07FFFFFF
1FFFFFFF
3FFFFFFF
3FFFFFFF
7F01F000
7C01F000
FC01F000
F801F000
F801F000
F801FFF0
F801FFF0
F801FFF0
F801FFF0
F801FFF0
FFFFF000
FFFFF000
FFFFF000
FFFFF000
FFFFF000
F801FFFF
F801FFFF
F801FFFF
F801FFFF
F801FFFF
ENDCHAR
STARTCHAR Ccedilla
ENCODING 199
SWIDTH 640 0
DWIDTH 23 0
BBX 21 34 1 -8
BITMAP
000400
00FFC0
03FFF0
07FFF8
0FFFF8
1FFFF0
3F8070
7F0020
7E0000
7C0000
FC0000
F80000
F80000
F80000
F80000
F80000
FC0000
7C0000
7E0000
7F0020
3F8070
1FFFF0
0FFFF8
07FFF8
03FFF0
00FFC0
003C00
003000
007C00
001C00
009C00
01FC00
01FC00
00F800
ENDCHAR
STARTCHAR Egrave
ENCODING 200
SWIDTH 578 0
DWIDTH 21 0
BBX 18 34 2 0
BITMAP
020000
070000
0F8000
1FC000
07E000
03E000
00C000
000000
000000
FFFFC0
FFFFC0
FFFFC0
FFFFC0
FFFFC0
F80000
F80000
F80000
F80000
F80000
FFFC00
FFFC00
FFFC00
FFFC00
FFFC00
F80000
F80000
F80000
F80000
F80000
FFFFC0
FFFFC0
FFFFC0
FFFFC0
FFFFC0
ENDCHAR
STARTCHAR Eacute
ENCODING 201
SWIDTH 578 0
DWIDTH 21 0
BBX 18 34 2 0
BITMAP
000800
001C00
003C00
00FE00
01FC00
00F000
004000
000000
000000
FFFFC0
FFFFC0
FFFFC0
FFFFC0
FFFFC0
F80000
F80000
F80000
F80000
F80000
FFFC00
FFFC00
FFFC00
FFFC00
FFFC00
F80000
F80000
F80000
F80000
F80000
FFFFC0
FFFFC0
FFFFC0
FFFFC0
FFFFC0
ENDCHAR
STARTCHAR Ecircumflex
ENCODING 202
SWIDTH 578 0
DWIDTH 21 0
BBX 18 34 2 0
BITMAP
00C000
01E000
03F000
07F800
0FFC00
073800
021000
000000
000000
FFFFC0
FFFFC0
FFFFC0
FFFFC0
FFFFC0
F80000
F80000
F80000
F80000
F80000
FFFC00
FFFC00
FFFC00
FFFC00
FFFC00
F80000
F80000
F80000
F80000
F80000
FFFFC0
FFFFC0
FFFFC0
FFFFC0
FFFFC0
ENDCHAR
STARTCHAR Edieresis
ENCODING 203
SWIDTH 578 0
DWIDTH 21 0
BBX 18 31 2 0
BITMAP
0F3C00
0F3C00
0F3C00
0E1800
000000
000000
FFFFC0
FFFFC0
FFFFC0
FFFFC0
FFFFC0
F80000
F80000
F80000
F80000
F80000
FFFC00
FFFC00
FFFC00
FFFC00
FFFC00
F80000
F80000
F80000
F80000
F80000
FFFFC0
FFFFC0
FFFFC0
FFFFC0
FFFFC0
ENDCHAR
STARTCHAR Igrave
ENCODING 204
SWIDTH 270 0
DWIDTH 10 0
BBX 8 34 -1 0
BITMAP
20
70
F8
FE
7F
1E
04
00
00
1F
1F
1F
1F
1F
1F
1F
1F
1F
1F
1F
1F
1F
1F
1F
1F
1F
1F
1F
1F
1F
1F
1F
1F
1F
ENDCHAR
STARTCHAR Iacute
ENCODING 205
SWIDTH 270 0
DWIDTH 10 0
BBX 9 34 2 0
BITMAP
0600
0E00
1F00
3F80
7E00
7C00
3000
0000
0000
F800
F800
F800
F800
F800
F800
F800
F800
F800
F800
F800
F800
F800
F800
F800
F800
F800
F800
F800
F800
F800
F800
F800
F800
F800
ENDCHAR
STARTCHAR Icircumflex
ENCODING 206
SWIDTH 270 0
DWIDTH 10 0
BBX 10 34 0 0
BITMAP
0800
1E00
3F00
7F80
FFC0
7380
2100
0000
0000
3E00
3E00
3E00
3E00
3E00
3E00
3E00
3E00
3E00
3E00
3E00
3E00
3E00
3E00
3E00
3E00
3E00
3E00
3E00
3E00
3E00
3E00
3E00
3E00
3E00
ENDCHAR
STARTCHAR Idieresis
ENCODING 207
SWIDTH 270 0
DWIDTH 10 0
BBX 11 31 -1 0
BITMAP
79E0
F9E0
79E0
70C0
0000
0000
1F00
1F00
1F00
1F00
1F00
1F00
1F00
1F00
1F00
1F00
1F00
1F00
1F00
1F00
1F00
1F00
1F00
1F00
1F00
1F00
1F00
1F00
1F00
1F00
1F00
ENDCHAR
STARTCHAR Eth
ENCODING 208
SWIDTH 672 0
DWIDTH 24 0
BBX 23 25 0 0
BITMAP
1FFE00
1FFF80
1FFFC0
1FFFF0
1FFFF0
1F03F8
1F01FC
1F00FC
1F007E
1F003E
FFE03E
FFE03E
FFE03E
FFE03E
FFE03E
1F007E
1F007E
1F00FC
1F01FC
1F07F8
1FFFF0
1FFFE0
1FFFC0
1FFF80
1FFC00
ENDCHAR
STARTCHAR Ntilde
ENCODING 209
SWIDTH 689 0
DWIDTH 25 0
BBX 21 33 2 0
BITMAP
01C700
07E700
07FF00
07FF00
073F00
071E00
000000
000000
FC01F8
FE01F8
FE01F8
FF01F8
FF01F8
FF81F8
FFC1F8
FFC1F8
FFE1F8
FBE1F8
F9F1F8
F9F9F8
F8F9F8
F8FDF8
F87DF8
F83FF8
F83FF8
F81FF8
F81FF8
F80FF8
F80FF8
F807F8
F803F8
F803F8
F801F8
ENDCHAR
STARTCHAR Ograve
ENCODING 210
SWIDTH 777 0
DWIDTH 28 0
BBX 26 34 1 0
BITMAP
00400000
00E00000
00F80000
01FC0000
00FE0000
003C0000
000C0000
00000000
00000000
00FFC000
03FFF000
07FFF800
0FFFFC00
1FFFFE00
3F807F00
7F003F80
7E001F80
7C000F80
FC000FC0
F80007C0
F80007C0
F80007C0
F80007C0
F80007C0
FC000FC0
7C000F80
7E001F80
7F003F80
3F807F00
1FFFFE00
0FFFFC00
07FFF800
03FFF000
00FFC000
ENDCHAR
STARTCHAR Oacute
ENCODING 211
SWIDTH 777 0
DWIDTH 28 0
BBX 26 34 1 0
BITMAP
00008000
0001C000
0003E000
0007E000
001FC000
000F0000
00060000
00000000
00000000
00FFC000
03FFF000
07FFF800
0FFFFC00
1FFFFE00
3F807F00
7F003F80
7E001F80
7C000F80
FC000FC0
F80007C0
F80007C0
F80007C0
F80007C0
F80007C0
FC000FC0
7C000F80
7E001F80
7F003F80
3F807F00
1FFFFE00
0FFFFC00
07FFF800
03FFF000
00FFC000
ENDCHAR
STARTCHAR Ocircumflex
ENCODING 212
SWIDTH 777 0
DWIDTH 28 0
BBX 26 34 1 0
BITMAP
000C0000
001E0000
003F0000
007F8000
00FFC000
00738000
00210000
00000000
00000000
00FFC000
03FFF000
07FFF800
0FFFFC00
1FFFFE00
3F807F00
7F003F80
7E001F80
7C000F80
FC000FC0
F80007C0
F80007C0
F80007C0
F80007C0
F80007C0
FC000FC0
7C000F80
7E001F80
7F003F80
3F807F00
1FFFFE00
0FFFFC00
07FFF800
03FFF000
00FFC000
ENDCHAR
STARTCHAR Otilde
ENCODING 213
SWIDTH 777 0
DWIDTH 28 0
BBX 26 33 1 0
BITMAP
0071E000
00FDE000
01FFE000
01FFE000
01E7C000
01E38000
00000000
00000000
00FFC000
03FFF000
07FFF800
0FFFFC00
1FFFFE00
3F807F00
7F003F80
7E001F80
7C000F80
FC000FC0
F80007C0
F80007C0
F80007C0
F80007C0
F80007C0
FC000FC0
7C000F80
7E001F80
7F003F80
3F807F00
1FFFFE00
0FFFFC00
07FFF800
03FFF000
00FFC000
ENDCHAR
STARTCHAR Odieresis
ENCODING 214
SWIDTH 777 0
DWIDTH 28 0
BBX 26 31 1 0
BITMAP
00F3C000
00F3C000
00F3C000
0061C000
00000000
00000000
00FFC000
03FFF000
07FFF800
0FFFFC00
1FFFFE00
3F807F00
7F003F80
7E001F80
7C000F80
FC000FC0
F80007C0
F80007C0
F80007C0
F80007C0
F80007C0
FC000FC0
7C000F80
7E001F80
7F003F80
3F807F00
1FFFFE00
0FFFFC00
07FFF800
03FFF000
00FFC000
ENDCHAR
STARTCHAR multiply
ENCODING 215
SWIDTH 479 0
DWIDTH 17 0
BBX 14 14 2 6
BITMAP
0020
3070
78F8
FDFC
FFF8
7FF0
3FE0
1FC0
3FE0
7FF0
FFF8
7DF8
38F0
1060
ENDCHAR
STARTCHAR Oslash
ENCODING 216
SWIDTH 777 0
DWIDTH 28 0
BBX 26 25 1 0
BITMAP
00FFDF00
03FFFE00
07FFFE00
0FFFFC00
1FFFFE00
3F80FF00
7F01FF80
7E03FF80
7C07CF80
FC07CFC0
F80F87C0
F81F07C0
F81E07C0
F83E07C0
F87C07C0
FCF80FC0
7CF00F80
7FF01F80
7FE03F80
3FC07F00
1FFFFE00
0FFFFC00
1FFFF800
3FFFF000
3EFFC000
ENDCHAR
STARTCHAR Ugrave
ENCODING 217
SWIDTH 673 0
DWIDTH 24 0
BBX 20 34 2 0
BITMAP
030000
038000
07C000
0FE000
03F000
01F000
006000
000000
000000
F801F0
F801F0
F801F0
F801F0
F801F0
F801F0
F801F0
F801F0
F801F0
F801F0
F801F0
F801F0
F801F0
F801F0
F801F0
F801F0
F801F0
FC03F0
7E03F0
7F0FE0
3FFFE0
3FFFC0
1FFF80
07FE00
01F800
ENDCHAR
STARTCHAR Uacute
ENCODING 218
SWIDTH 673 0
DWIDTH 24 0
BBX 20 34 2 0
BITMAP
000400
000E00
001F00
003F80
007E00
007800
003000
000000
000000
F801F0
F801F0
F801F0
F801F0
F801F0
F801F0
F801F0
F801F0
F801F0
F801F0
F801F0
F801F0
F801F0
F801F0
F801F0
F801F0
F801F0
FC03F0
7E03F0
7F0FE0
3FFFE0
3FFFC0
1FFF80
07FE00
01F800
ENDCHAR
STARTCHAR Ucircumflex
ENCODING 219
SWIDTH 673 0
DWIDTH 24 0
BBX 20 33 2 0
BITMAP
006000
00F000
01F800
03FC00
07FE00
039C00
010800
000000
F801F0
F801F0
F801F0
F801F0
F801F0
F801F0
F801F0
F801F0
F801F0
F801F0
F801F0
F801F0
F801F0
F801F0
F801F0
F801F0
F801F0
FC03F0
7E03F0
7F0FE0
3FFFE0
3FFFC0
1FFF80
07FE00
01F800
ENDCHAR
STARTCHAR Udieresis
ENCODING 220
SWIDTH 673 0
DWIDTH 24 0
BBX 20 30 2 0
BITMAP
078E00
079F00
079E00
030E00
000000
F801F0
F801F0
F801F0
F801F0
F801F0
F801F0
F801F0
F801F0
F801F0
F801F0
F801F0
F801F0
F801F0
F801F0
F801F0
F801F0
F801F0
FC03F0
7E03F0
7F0FE0
3FFFE0
3FFFC0
1FFF80
07FE00
01F800
ENDCHAR
STARTCHAR Yacute
ENCODING 221
SWIDTH 620 0
DWIDTH 22 0
BBX 20 34 1 0
BITMAP
000400
000E00
001F00
003F00
00FE00
007800
003000
000000
000000
F801F0
F801F0
F801F0
F801F0
F801F0
F801F0
F801F0
F801F0
F801F0
FC01F0
7C03F0
7E07E0
7FFFE0
3FFFC0
1FFF80
0FFF00
03FC00
00F800
00F800
00F800
00F800
00F800
00F800
00F800
00F800
ENDCHAR
STARTCHAR Thorn
ENCODING 222
SWIDTH 637 0
DWIDTH 23 0
BBX 21 27 2 -1
BITMAP
F80000
F80000
F80000
FFF000
FFFE00
FFFF80
FFFFC0
FFFFE0
F81FE0
F803F0
F801F0
F801F0
F801F0
F801F8
F801F0
F801F0
F803F0
F807F0
FFFFE0
FFFFC0
FFFFC0
FFFF00
FFFE00
F80000
F80000
F80000
F80000
ENDCHAR
STARTCHAR germandbls
ENCODING 223
SWIDTH 813 0
DWIDTH 29 0
BBX 28 28 1 0
BITMAP
01FFC000
03FFF000
0FFFF800
0FFFF800
1FFFFC00
1F007C00
3E007C00
3E007C00
3E007C00
FE03FC00
FE0FF800
FE1FF800
FE3FF000
FE7FC000
3E7C0000
3E7C0000
3E7FFC00
3E3FFFC0
3E3FFFE0
3E1FFFE0
3E0FFFF0
3E0001F0
3E0001F0
3E1FFFF0
3E1FFFE0
3E1FFFE0
3E1FFFC0
3E1FFF00
ENDCHAR
STARTCHAR agrave
ENCODING 224
SWIDTH 607 0
DWIDTH 22 0
BBX 19 28 1 0
BITMAP
020000
070000
0F8000
1FC000
07E000
03E000
00C000
000000
004000
07F820
1FFE60
3FFFE0
3FFFE0
7F3FE0
7C0FE0
F807E0
F803E0
F803E0
F803E0
F803E0
F803E0
FC07E0
7C0FE0
7FBFE0
3FFFE0
3FFFE0
1FFE60
07F820
ENDCHAR
STARTCHAR aacute
ENCODING 225
SWIDTH 607 0
DWIDTH 22 0
BBX 19 28 1 0
BITMAP
000800
001C00
003E00
007F00
00FC00
00F000
006000
000000
004000
07F820
1FFE60
3FFFE0
3FFFE0
7F3FE0
7C0FE0
F807E0
F803E0
F803E0
F803E0
F803E0
F803E0
FC07E0
7C0FE0
7FBFE0
3FFFE0
3FFFE0
1FFE60
07F820
ENDCHAR
STARTCHAR acircumflex
ENCODING 226
SWIDTH 607 0
DWIDTH 22 0
BBX 19 27 1 0
BITMAP
004000
00E000
01F000
03F800
07BC00
031800
020800
004000
07F820
1FFE60
3FFFE0
3FFFE0
7F3FE0
7C0FE0
F807E0
F803E0
F803E0
F803E0
F803E0
F803E0
FC07E0
7C0FE0
7FBFE0
3FFFE0
3FFFE0
1FFE60
07F820
ENDCHAR
STARTCHAR atilde
ENCODING 227
SWIDTH 607 0
DWIDTH 22 0
BBX 19 27 1 0
BITMAP
038E00
0FCE00
0FFE00
0FFE00
0E7E00
0E3C00
000000
004000
07F820
1FFE60
3FFFE0
3FFFE0
7F3FE0
7C0FE0
F807E0
F803E0
F803E0
F803E0
F803E0
F803E0
FC07E0
7C0FE0
7FBFE0
3FFFE0
3FFFE0
1FFE60
07F820
ENDCHAR
STARTCHAR adieresis
ENCODING 228
SWIDTH 607 0
DWIDTH 22 0
BBX 19 25 1 0
BITMAP
0F1C00
0F3E00
0F1E00
071C00
000000
004000
07F820
1FFE60
3FFFE0
3FFFE0
7F3FE0
7C0FE0
F807E0
F803E0
F803E0
F803E0
F803E0
F803E0
FC07E0
7C0FE0
7FBFE0
3FFFE0
3FFFE0
1FFE60
07F820
ENDCHAR
STARTCHAR aring
ENCODING 229
SWIDTH 607 0
DWIDTH 22 0
BBX 19 27 1 0
BITMAP
01F000
03F800
033800
033800
03F800
01F000
000000
004000
07F820
1FFE60
3FFFE0
3FFFE0
7F3FE0
7C0FE0
F807E0
F803E0
F803E0
F803E0
F803E0
F803E0
FC07E0
7C0FE0
7FBFE0
3FFFE0
3FFFE0
1FFE60
07F820
ENDCHAR
STARTCHAR ae
ENCODING 230
SWIDTH 976 0
DWIDTH 35 0
BBX 34 20 1 0
BITMAP
0040004000
07F827FC00
1FFE6FFF00
3FFFFFFF80
3FFFFFFFC0
7F3FFF9F80
7C0FFE3F00
F807FC7E00
F803F87C00
F803F8F800
F803F9F800
F803FBF000
F803FBE000
FC07FFC200
7C0FFF8700
7FBFFFBF80
3FFFFFFF80
3FFFFFFF80
1FFE6FFE00
07F823FC00
ENDCHAR
STARTCHAR ccedilla
ENCODING 231
SWIDTH 521 0
DWIDTH 19 0
BBX 17 28 1 -8
BITMAP
004000
07FC00
0FFE00
1FFF00
3FFF80
7F1F80
7C0F00
FC0600
F80000
F80000
F80000
F80000
F80000
FC0400
7C0E00
7FBF00
3FFF80
1FFF00
0FFE00
07F800
00C000
01C000
01F000
007000
027000
07F000
07F000
03E000
ENDCHAR
STARTCHAR egrave
ENCODING 232
SWIDTH 524 0
DWIDTH 19 0
BBX 17 28 1 0
BITMAP
060000
0F0000
0F8000
1FC000
07E000
03C000
00C000
000000
004000
07FC00
1FFE00
3FFF00
3FFF80
7F1F80
7C3F00
F87E00
F8FC00
F8F800
F9F000
FBF000
FFE000
FFC600
7F8F00
7FBF00
3FFF80
1FFF00
0FFE00
07F800
ENDCHAR
STARTCHAR eacute
ENCODING 233
SWIDTH 524 0
DWIDTH 19 0
BBX 17 28 1 0
BITMAP
000800
001C00
003E00
007E00
00FC00
00F000
006000
000000
004000
07FC00
1FFE00
3FFF00
3FFF80
7F1F80
7C3F00
F87E00
F8FC00
F8F800
F9F000
FBF000
FFE000
FFC600
7F8F00
7FBF00
3FFF80
1FFF00
0FFE00
07F800
ENDCHAR
STARTCHAR ecircumflex
ENCODING 234
SWIDTH 524 0
DWIDTH 19 0
BBX 17 28 1 0
BITMAP
008000
01C000
03E000
07F000
0F7800
063800
001000
000000
004000
07FC00
1FFE00
3FFF00
3FFF80
7F1F80
7C3F00
F87E00
F8FC00
F8F800
F9F000
FBF000
FFE000
FFC600
7F8F00
7FBF00
3FFF80
1FFF00
0FFE00
07F800
ENDCHAR
STARTCHAR edieresis
ENCODING 235
SWIDTH 524 0
DWIDTH 19 0
BBX 17 26 1 0
BITMAP
040000
0E3C00
1F3C00
1F3C00
0E1800
000000
004000
07FC00
1FFE00
3FFF00
3FFF80
7F1F80
7C3F00
F87E00
F8FC00
F8F800
F9F000
FBF000
FFE000
FFC600
7F8F00
7FBF00
3FFF80
1FFF00
0FFE00
07F800
ENDCHAR
STARTCHAR igrave
ENCODING 236
SWIDTH 235 0
DWIDTH 8 0
BBX 9 28 -2 0
BITMAP
3000
3800
7C00
FE00
3F00
1F00
0600
0000
0000
0F80
0F80
0F80
0F80
0F80
0F80
0F80
0F80
0F80
0F80
0F80
0F80
0F80
0F80
0F80
0F80
0F80
0F80
0F80
ENDCHAR
STARTCHAR iacute
ENCODING 237
SWIDTH 235 0
DWIDTH 8 0
BBX 8 28 2 0
BITMAP
04
0E
1F
3F
FE
78
30
00
00
F8
F8
F8
F8
F8
F8
F8
F8
F8
F8
F8
F8
F8
F8
F8
F8
F8
F8
F8
ENDCHAR
STARTCHAR icircumflex
ENCODING 238
SWIDTH 235 0
DWIDTH 8 0
BBX 9 27 0 0
BITMAP
0800
1C00
3E00
FF00
FF80
E300
4000
0000
3E00
3E00
3E00
3E00
3E00
3E00
3E00
3E00
3E00
3E00
3E00
3E00
3E00
3E00
3E00
3E00
3E00
3E00
3E00
ENDCHAR
STARTCHAR idieresis
ENCODING 239
SWIDTH 235 0
DWIDTH 8 0
BBX 11 24 -1 0
BITMAP
F1C0
F3E0
F3E0
61C0
0000
1F00
1F00
1F00
1F00
1F00
1F00
1F00
1F00
1F00
1F00
1F00
1F00
1F00
1F00
1F00
1F00
1F00
1F00
1F00
ENDCHAR
STARTCHAR eth
ENCODING 240
SWIDTH 581 0
DWIDTH 21 0
BBX 19 27 1 0
BITMAP
01F800
00F800
0FFFC0
0FFFC0
0FFFC0
0FFFC0
001F00
001F00
07FF80
0FFF80
3FFFC0
3FFFC0
7F3FC0
7C07C0
F807E0
F803E0
F803E0
F803E0
F803E0
F803E0
FC07E0
7E0FC0
7FBFC0
3FFF80
1FFF00
0FFE00
07F800
ENDCHAR
STARTCHAR ntilde
ENCODING 241
SWIDTH 562 0
DWIDTH 20 0
BBX 17 27 2 0
BITMAP
0E1C00
1F9C00
1FFC00
3FFC00
3CF800
1C7800
000000
000000
87F000
DFF800
FFFC00
FFFE00
FFFF00
FC1F00
F81F00
F80F80
F80F80
F80F80
F80F80
F80F80
F80F80
F80F80
F80F80
F80F80
F80F80
F80F80
F80F80
ENDCHAR
STARTCHAR ograve
ENCODING 242
SWIDTH 579 0
DWIDTH 21 0
BBX 19 28 1 0
BITMAP
020000
070000
0F8000
1FC000
07E000
03E000
00C000
000000
004000
07FC00
0FFE00
3FFF80
3FFF80
7F3FC0
7C07C0
F807E0
F803E0
F803E0
F803E0
F803E0
F803E0
FC07E0
7E0FC0
7FBFC0
3FFF80
1FFF00
0FFE00
07F800
ENDCHAR
STARTCHAR oacute
ENCODING 243
SWIDTH 579 0
DWIDTH 21 0
BBX 19 28 1 0
BITMAP
000800
001C00
003E00
007E00
00FC00
00F000
006000
000000
004000
07FC00
0FFE00
3FFF80
3FFF80
7F3FC0
7C07C0
F807E0
F803E0
F803E0
F803E0
F803E0
F803E0
FC07E0
7E0FC0
7FBFC0
3FFF80
1FFF00
0FFE00
07F800
ENDCHAR
STARTCHAR ocircumflex
ENCODING 244
SWIDTH 579 0
DWIDTH 21 0
BBX 19 28 1 0
BITMAP
004000
00E000
01F000
03F800
07BC00
031800
020800
000000
004000
07FC00
0FFE00
3FFF80
3FFF80
7F3FC0
7C07C0
F807E0
F803E0
F803E0
F803E0
F803E0
F803E0
FC07E0
7E0FC0
7FBFC0
3FFF80
1FFF00
0FFE00
07F800
ENDCHAR
STARTCHAR otilde
ENCODING 245
SWIDTH 579 0
DWIDTH 21 0
BBX 19 27 1 0
BITMAP
038E00
0FCE00
0FFE00
0FFE00
0E7E00
0E3C00
000000
004000
07FC00
0FFE00
3FFF80
3FFF80
7F3FC0
7C07C0
F807E0
F803E0
F803E0
F803E0
F803E0
F803E0
FC07E0
7E0FC0
7FBFC0
3FFF80
1FFF00
0FFE00
07F800
ENDCHAR
STARTCHAR odieresis
ENCODING 246
SWIDTH 579 0
DWIDTH 21 0
BBX 19 25 1 0
BITMAP
0F1C00
0F3E00
0F1E00
071C00
000000
004000
07FC00
0FFE00
3FFF80
3FFF80
7F3FC0
7C07C0
F807E0
F803E0
F803E0
F803E0
F803E0
F803E0
FC07E0
7E0FC0
7FBFC0
3FFF80
1FFF00
0FFE00
07F800
ENDCHAR
STARTCHAR divide
ENCODING 247
SWIDTH 494 0
DWIDTH 18 0
BBX 14 17 2 4
BITMAP
0780
0F80
0F80
0780
0000
0000
FFFC
FFFC
FFFC
FFFC
FFFC
0000
0780
0F80
0F80
0780
0300
ENDCHAR
STARTCHAR oslash
ENCODING 248
SWIDTH 579 0
DWIDTH 21 0
BBX 19 20 1 0
BITMAP
004000
07FFE0
0FFFC0
3FFF80
3FFF80
7F1FC0
7C3FC0
F87FE0
F87BE0
F8FBE0
F9F3E0
FBE3E0
FBC3E0
FFC7E0
7F8FC0
7FBFC0
3FFF80
3FFF00
7FFE00
FFF800
ENDCHAR
STARTCHAR ugrave
ENCODING 249
SWIDTH 562 0
DWIDTH 20 0
BBX 16 27 2 0
BITMAP
0800
1C00
1F00
3F80
1FC0
0780
0180
0000
F00F
F00F
F00F
F00F
F00F
F00F
F00F
F00F
F00F
F00F
F00F
F01F
F81F
F83F
FFFF
7FFF
3FFF
1FFB
0FE1
ENDCHAR
STARTCHAR uacute
ENCODING 250
SWIDTH 562 0
DWIDTH 20 0
BBX 16 27 2 0
BITMAP
0010
0038
00F8
01FC
03F8
01E0
0180
0000
F00F
F00F
F00F
F00F
F00F
F00F
F00F
F00F
F00F
F00F
F00F
F01F
F81F
F83F
FFFF
7FFF
3FFF
1FFB
0FE1
ENDCHAR
STARTCHAR ucircumflex
ENCODING 251
SWIDTH 562 0
DWIDTH 20 0
BBX 16 27 2 0
BITMAP
0180
03C0
07E0
0FF0
1FF8
0E70
0420
0000
F00F
F00F
F00F
F00F
F00F
F00F
F00F
F00F
F00F
F00F
F00F
F01F
F81F
F83F
FFFF
7FFF
3FFF
1FFB
0FE1
ENDCHAR
STARTCHAR udieresis
ENCODING 252
SWIDTH 562 0
DWIDTH 20 0
BBX 16 24 2 0
BITMAP
1E78
1E78
1E78
0C38
0000
F00F
F00F
F00F
F00F
F00F
F00F
F00F
F00F
F00F
F00F
F00F
F01F
F81F
F83F
FFFF
7FFF
3FFF
1FFB
0FE1
ENDCHAR
STARTCHAR yacute
ENCODING 253
SWIDTH 562 0
DWIDTH 20 0
BBX 16 34 2 -7
BITMAP
0010
0078
00F8
01FC
03F8
01E0
0180
0000
F00F
F00F
F00F
F00F
F00F
F00F
F00F
F00F
F00F
F00F
F00F
F01F
F81F
F83F
FFFF
7FFF
3FFF
1FFF
0FFF
001F
003F
0FFE
0FFC
0FFC
0FF0
0FC0
ENDCHAR
STARTCHAR thorn
ENCODING 254
SWIDTH 608 0
DWIDTH 22 0
BBX 19 34 2 -7
BITMAP
F80000
F80000
F80000
F80000
F80000
F80000
F80000
F84000
FBFC00
FFFE00
FFFF80
FFFF80
FF3FC0
FC07C0
F807E0
F803E0
F803E0
F803E0
F803E0
F803E0
FC07E0
FE0FC0
FFBFC0
FFFF80
FFFF80
FFFE00
FBFC00
F80000
F80000
F80000
F80000
F80000
F80000
F80000
ENDCHAR
STARTCHAR ydieresis
ENCODING 255
SWIDTH 562 0
DWIDTH 20 0
BBX 16 31 2 -7
BITMAP
1E78
1E78
1E78
0C38
0000
F00F
F00F
F00F
F00F
F00F
F00F
F00F
F00F
F00F
F00F
F00F
F01F
F81F
F83F
FFFF
7FFF
3FFF
1FFF
0FFF
001F
003F
0FFE
0FFC
0FFC
0FF0
0FC0
ENDCHAR
STARTCHAR Amacron
ENCODING 256
SWIDTH 673 0
DWIDTH 24 0
BBX 20 30 2 0
BITMAP
03FE00
03FE00
03FE00
03FE00
000000
03FC00
07FF00
1FFF80
3FFFC0
3FFFE0
7F07E0
7C03F0
FC01F0
F801F0
F801F0
F801F0
F801F0
F801F0
F801F0
F801F0
FFFFF0
FFFFF0
FFFFF0
FFFFF0
FFFFF0
F801F0
F801F0
F801F0
F801F0
F801F0
ENDCHAR
STARTCHAR amacron
ENCODING 257
SWIDTH 607 0
DWIDTH 22 0
BBX 19 25 1 0
BITMAP
07FC00
07FC00
07FC00
07FC00
000000
004000
07F820
1FFE60
3FFFE0
3FFFE0
7F3FE0
7C0FE0
F807E0
F803E0
F803E0
F803E0
F803E0
F803E0
FC07E0
7C0FE0
7FBFE0
3FFFE0
3FFFE0
1FFE60
07F820
ENDCHAR
STARTCHAR Abreve
ENCODING 258
SWIDTH 673 0
DWIDTH 24 0
BBX 20 31 2 0
BITMAP
039C00
03FC00
03FC00
01F800
006000
000000
03FC00
07FF00
1FFF80
3FFFC0
3FFFE0
7F07E0
7C03F0
FC01F0
F801F0
F801F0
F801F0
F801F0
F801F0
F801F0
F801F0
FFFFF0
FFFFF0
FFFFF0
FFFFF0
FFFFF0
F801F0
F801F0
F801F0
F801F0
F801F0
ENDCHAR
STARTCHAR abreve
ENCODING 259
SWIDTH 607 0
DWIDTH 22 0
BBX 19 26 1 0
BITMAP
073800
07F800
07F800
03F000
00C000
000000
004000
07F820
1FFE60
3FFFE0
3FFFE0
7F3FE0
7C0FE0
F807E0
F803E0
F803E0
F803E0
F803E0
F803E0
FC07E0
7C0FE0
7FBFE0
3FFFE0
3FFFE0
1FFE60
07F820
ENDCHAR
STARTCHAR Aogonek
ENCODING 260
SWIDTH 673 0
DWIDTH 24 0
BBX 22 31 2 -6
BITMAP
03FC00
07FF00
1FFF80
3FFFC0
3FFFE0
7F07E0
7C03F0
FC01F0
F801F0
F801F0
F801F0
F801F0
F801F0
F801F0
F801F0
FFFFF0
FFFFF0
FFFFF0
FFFFF0
FFFFF0
F801F0
F801F0
F801F0
F801F0
F801F0
0001C0
0003C0
000380
0003F8
0003FC
0001F0
ENDCHAR
STARTCHAR aogonek
ENCODING 261
SWIDTH 607 0
DWIDTH 22 0
BBX 22 26 1 -6
BITMAP
004000
07F820
1FFE60
3FFFE0
3FFFE0
7F3FE0
7C0FE0
F807E0
F803E0
F803E0
F803E0
F803E0
F803E0
FC07E0
7C0FE0
7FBFE0
3FFFE0
3FFFE0
1FFE60
07F860
0000E0
0001C0
0003D0
0003F8
0001FC
0001F8
ENDCHAR
STARTCHAR Cacute
ENCODING 262
SWIDTH 640 0
DWIDTH 23 0
BBX 21 35 1 -1
BITMAP
000100
000380
0007C0
000FC0
001F80
001E00
000C00
000000
000400
00FFC0
03FFF0
07FFF8
0FFFF8
1FFFF0
3F8070
7F0020
7E0000
7C0000
FC0000
F80000
F80000
F80000
F80000
F80000
FC0000
7C0000
7E0000
7F0020
3F8070
1FFFF0
0FFFF8
07FFF8
03FFF0
00FFC0
000400
ENDCHAR
STARTCHAR cacute
ENCODING 263
SWIDTH 521 0
DWIDTH 19 0
BBX 17 28 1 0
BITMAP
001800
003C00
007C00
00FE00
01FC00
00F000
00C000
000000
004000
07FC00
0FFE00
1FFF00
3FFF80
7F1F80
7C0F00
FC0600
F80000
F80000
F80000
F80000
F80000
FC0400
7C0E00
7FBF00
3FFF80
1FFF00
0FFE00
07F800
ENDCHAR
STARTCHAR Ccircumflex
ENCODING 264
SWIDTH 640 0
DWIDTH 23 0
BBX 21 35 1 -1
BITMAP
000800
001C00
007E00
00FF00
00FF80
00E300
004000
000000
000400
00FFC0
03FFF0
07FFF8
0FFFF8
1FFFF0
3F8070
7F0020
7E0000
7C0000
FC0000
F80000
F80000
F80000
F80000
F80000
FC0000
7C0000
7E0000
7F0020
3F8070
1FFFF0
0FFFF8
07FFF8
03FFF0
00FFC0
000400
ENDCHAR
STARTCHAR ccircumflex
ENCODING 265
SWIDTH 521 0
DWIDTH 19 0
BBX 17 28 1 0
BITMAP
004000
00E000
01F000
07F800
07FC00
071800
020000
000000
004000
07FC00
0FFE00
1FFF00
3FFF80
7F1F80
7C0F00
FC0600
F80000
F80000
F80000
F80000
F80000
FC0400
7C0E00
7FBF00
3FFF80
1FFF00
0FFE00
07F800
ENDCHAR
STARTCHAR Cdotaccent
ENCODING 266
SWIDTH 640 0
DWIDTH 23 0
BBX 21 33 1 -1
BITMAP
000C00
001E00
001E00
001E00
000C00
000000
000400
00FFC0
03FFF0
07FFF8
0FFFF8
1FFFF0
3F8070
7F0020
7E0000
7C0000
FC0000
F80000
F80000
F80000
F80000
F80000
FC0000
7C0000
7E0000
7F0020
3F8070
1FFFF0
0FFFF8
07FFF8
03FFF0
00FFC0
000400
ENDCHAR
STARTCHAR cdotaccent
ENCODING 267
SWIDTH 521 0
DWIDTH 19 0
BBX 17 26 1 0
BITMAP
00E000
01E000
01F000
01E000
004000
000000
004000
07FC00
0FFE00
1FFF00
3FFF80
7F1F80
7C0F00
FC0600
F80000
F80000
F80000
F80000
F80000
FC0400
7C0E00
7FBF00
3FFF80
1FFF00
0FFE00
07F800
ENDCHAR
STARTCHAR Ccaron
ENCODING 268
SWIDTH 640 0
DWIDTH 23 0
BBX 21 34 1 -1
BITMAP
006100
00F780
00FF80
003F00
001E00
000C00
000000
000400
00FFC0
03FFF0
07FFF8
0FFFF8
1FFFF0
3F8070
7F0020
7E0000
7C0000
FC0000
F80000
F80000
F80000
F80000
F80000
FC0000
7C0000
7E0000
7F0020
3F8070
1FFFF0
0FFFF8
07FFF8
03FFF0
00FFC0
000400
ENDCHAR
STARTCHAR ccaron
ENCODING 269
SWIDTH 521 0
DWIDTH 19 0
BBX 17 28 1 0
BITMAP
031800
07BC00
07FC00
03F800
01F000
00E000
004000
000000
004000
07FC00
0FFE00
1FFF00
3FFF80
7F1F80
7C0F00
FC0600
F80000
F80000
F80000
F80000
F80000
FC0400
7C0E00
7FBF00
3FFF80
1FFF00
0FFE00
07F800
ENDCHAR
STARTCHAR Dcaron
ENCODING 270
SWIDTH 653 0
DWIDTH 24 0
BBX 21 33 2 0
BITMAP
031800
07BC00
07FC00
03F800
00F000
006000
000000
000000
FFF000
FFFC00
FFFF00
FFFF80
FFFFC0
F81FC0
F807E0
F803F0
F803F0
F801F0
F801F0
F801F0
F801F8
F801F0
F801F0
F801F0
F803F0
F803E0
F80FE0
F83FC0
FFFFC0
FFFF80
FFFE00
FFFC00
FFE000
ENDCHAR
STARTCHAR dcaron
ENCODING 271
SWIDTH 740 0
DWIDTH 27 0
BBX 26 26 1 0
BITMAP
0003E000
0003E380
0003E7C0
0003E7C0
0003E7C0
0003E180
0043E380
07FBE300
0FFFE000
3FFFE000
3FFFE000
7F3FE000
7C0FE000
F807E000
F803E000
F803E000
F803E000
F803E000
F803E000
FC07E000
7E0FE000
7FBFE000
3FFFE000
1FFFE000
0FFE6000
07F86000
ENDCHAR
STARTCHAR Dcroat
ENCODING 272
SWIDTH 672 0
DWIDTH 24 0
BBX 23 25 0 0
BITMAP
1FFE00
1FFF80
1FFFC0
1FFFF0
1FFFF0
1F03F8
1F01FC
1F00FC
1F007E
1F003E
FFE03E
FFE03E
FFE03E
FFE03E
FFE03E
1F007E
1F007E
1F00FC
1F01FC
1F07F8
1FFFF0
1FFFE0
1FFFC0
1FFF80
1FFC00
ENDCHAR
STARTCHAR dcroat
ENCODING 273
SWIDTH 606 0
DWIDTH 22 0
BBX 21 26 1 0
BITMAP
0003E0
000FF8
000FF8
000FF8
000FF8
000FF8
0043E0
07FBE0
0FFFE0
3FFFE0
3FFFE0
7F3FE0
7C0FE0
F807E0
F803E0
F803E0
F803E0
F803E0
F803E0
FC07E0
7E0FE0
7FBFE0
3FFFE0
1FFFE0
0FFE60
07F860
ENDCHAR
STARTCHAR Emacron
ENCODING 274
SWIDTH 578 0
DWIDTH 21 0
BBX 18 30 2 0
BITMAP
07FC00
07FC00
07FC00
07FC00
000000
FFFFC0
FFFFC0
FFFFC0
FFFFC0
FFFFC0
F80000
F80000
F80000
F80000
F80000
FFFC00
FFFC00
FFFC00
FFFC00
FFFC00
F80000
F80000
F80000
F80000
F80000
FFFFC0
FFFFC0
FFFFC0
FFFFC0
FFFFC0
ENDCHAR
STARTCHAR emacron
ENCODING 275
SWIDTH 524 0
DWIDTH 19 0
BBX 17 25 1 0
BITMAP
07FC00
07FC00
07FC00
07FC00
000000
004000
07FC00
1FFE00
3FFF00
3FFF80
7F1F80
7C3F00
F87E00
F8FC00
F8F800
F9F000
FBF000
FFE000
FFC600
7F8F00
7FBF00
3FFF80
1FFF00
0FFE00
07F800
ENDCHAR
STARTCHAR Ebreve
ENCODING 276
SWIDTH 578 0
DWIDTH 21 0
BBX 18 31 2 0
BITMAP
073800
07F800
07F800
03F000
00C000
000000
FFFFC0
FFFFC0
FFFFC0
FFFFC0
FFFFC0
F80000
F80000
F80000
F80000
F80000
FFFC00
FFFC00
FFFC00
FFFC00
FFFC00
F80000
F80000
F80000
F80000
F80000
FFFFC0
FFFFC0
FFFFC0
FFFFC0
FFFFC0
ENDCHAR
STARTCHAR ebreve
ENCODING 277
SWIDTH 524 0
DWIDTH 19 0
BBX 17 26 1 0
BITMAP
073800
07F800
07F800
03F000
00C000
000000
004000
07FC00
1FFE00
3FFF00
3FFF80
7F1F80
7C3F00
F87E00
F8FC00
F8F800
F9F000
FBF000
FFE000
FFC600
7F8F00
7FBF00
3FFF80
1FFF00
0FFE00
07F800
ENDCHAR
STARTCHAR Edotaccent
ENCODING 278
SWIDTH 578 0
DWIDTH 21 0
BBX 18 31 2 0
BITMAP
00C000
01E000
01E000
01E000
00C000
000000
FFFFC0
FFFFC0
FFFFC0
FFFFC0
FFFFC0
F80000
F80000
F80000
F80000
F80000
FFFC00
FFFC00
FFFC00
FFFC00
FFFC00
F80000
F80000
F80000
F80000
F80000
FFFFC0
FFFFC0
FFFFC0
FFFFC0
FFFFC0
ENDCHAR
STARTCHAR edotaccent
ENCODING 279
SWIDTH 524 0
DWIDTH 19 0
BBX 17 26 1 0
BITMAP
00C000
01E000
01E000
01E000
00C000
000000
004000
07FC00
1FFE00
3FFF00
3FFF80
7F1F80
7C3F00
F87E00
F8FC00
F8F800
F9F000
FBF000
FFE000
FFC600
7F8F00
7FBF00
3FFF80
1FFF00
0FFE00
07F800
ENDCHAR
STARTCHAR Eogonek
ENCODING 280
SWIDTH 578 0
DWIDTH 21 0
BBX 18 31 2 -6
BITMAP
FFFFC0
FFFFC0
FFFFC0
FFFFC0
FFFFC0
F80000
F80000
F80000
F80000
F80000
FFFC00
FFFC00
FFFC00
FFFC00
FFFC00
F80000
F80000
F80000
F80000
F80000
FFFFC0
FFFFC0
FFFFC0
FFFFC0
FFFFC0
001C00
003C00
003800
003F80
003FC0
001F00
ENDCHAR
STARTCHAR eogonek
ENCODING 281
SWIDTH 524 0
DWIDTH 19 0
BBX 17 26 1 -6
BITMAP
004000
07FC00
1FFE00
3FFF00
3FFF80
7F1F80
7C3F00
F87E00
F8FC00
F8F800
F9F000
FBF000
FFE000
FFC600
7F8F00
7FBF00
3FFF80
1FFF00
0FFE00
07FC00
003800
007000
007000
007E00
007F00
003E00
ENDCHAR
STARTCHAR Ecaron
ENCODING 282
SWIDTH 578 0
DWIDTH 21 0
BBX 18 33 2 0
BITMAP
021000
073800
07F800
03F000
01E000
00C000
000000
000000
FFFFC0
FFFFC0
FFFFC0
FFFFC0
FFFFC0
F80000
F80000
F80000
F80000
F80000
FFFC00
FFFC00
FFFC00
FFFC00
FFFC00
F80000
F80000
F80000
F80000
F80000
FFFFC0
FFFFC0
FFFFC0
FFFFC0
FFFFC0
ENDCHAR
STARTCHAR ecaron
ENCODING 283
SWIDTH 524 0
DWIDTH 19 0
BBX 17 28 1 0
BITMAP
021800
073800
07FC00
03F000
01E000
00C000
000000
000000
004000
07FC00
1FFE00
3FFF00
3FFF80
7F1F80
7C3F00
F87E00
F8FC00
F8F800
F9F000
FBF000
FFE000
FFC600
7F8F00
7FBF00
3FFF80
1FFF00
0FFE00
07F800
ENDCHAR
STARTCHAR Gcircumflex
ENCODING 284
SWIDTH 665 0
DWIDTH 24 0
BBX 21 34 1 -1
BITMAP
000800
001C00
003E00
007F00
00F780
006300
004100
000000
00FFC0
03FFF0
07FFF8
0FFFF8
1FFFF0
3F8070
7F0020
7E0000
7C0000
FC0000
F80000
F80000
F80078
F80078
F80078
FC0078
7C0078
7E0078
7F0078
3F8078
1FFFF8
0FFFF8
07FFF8
03FFF0
00FFC0
000400
ENDCHAR
STARTCHAR gcircumflex
ENCODING 285
SWIDTH 607 0
DWIDTH 22 0
BBX 19 35 1 -7
BITMAP
004000
00E000
01F000
07F800
07FC00
071800
020000
000000
004000
07F820
0FFE60
3FFFE0
3FFFE0
7F3FE0
7C0FE0
F807E0
F803E0
F803E0
F803E0
F803E0
F803E0
FC07E0
7C0FE0
7FBFE0
3FFFE0
3FFFE0
0FFFE0
07FBE0
0007E0
000FC0
01FFC0
01FF80
01FF00
01FE00
01F800
ENDCHAR
STARTCHAR Gbreve
ENCODING 286
SWIDTH 665 0
DWIDTH 24 0
BBX 21 33 1 -1
BITMAP
007700
007700
007F00
003F00
000C00
000000
000000
00FFC0
03FFF0
07FFF8
0FFFF8
1FFFF0
3F8070
7F0020
7E0000
7C0000
FC0000
F80000
F80000
F80078
F80078
F80078
FC0078
7C0078
7E0078
7F0078
3F8078
1FFFF8
0FFFF8
07FFF8
03FFF0
00FFC0
000400
ENDCHAR
STARTCHAR gbreve
ENCODING 287
SWIDTH 607 0
DWIDTH 22 0
BBX 19 33 1 -7
BITMAP
073800
07F800
03F800
03F000
004000
000000
004000
07F820
0FFE60
3FFFE0
3FFFE0
7F3FE0
7C0FE0
F807E0
F803E0
F803E0
F803E0
F803E0
F803E0
FC07E0
7C0FE0
7FBFE0
3FFFE0
3FFFE0
0FFFE0
07FBE0
0007E0
000FC0
01FFC0
01FF80
01FF00
01FE00
01F800
ENDCHAR
STARTCHAR Gdotaccent
ENCODING 288
SWIDTH 665 0
DWIDTH 24 0
BBX 21 33 1 -1
BITMAP
001C00
003C00
003E00
003C00
000800
000000
000000
00FFC0
03FFF0
07FFF8
0FFFF8
1FFFF0
3F8070
7F0020
7E0000
7C0000
FC0000
F80000
F80000
F80078
F80078
F80078
FC0078
7C0078
7E0078
7F0078
3F8078
1FFFF8
0FFFF8
07FFF8
03FFF0
00FFC0
000400
ENDCHAR
STARTCHAR gdotaccent
ENCODING 289
SWIDTH 607 0
DWIDTH 22 0
BBX 19 33 1 -7
BITMAP
00C000
01E000
01E000
01E000
00C000
000000
004000
07F820
0FFE60
3FFFE0
3FFFE0
7F3FE0
7C0FE0
F807E0
F803E0
F803E0
F803E0
F803E0
F803E0
FC07E0
7C0FE0
7FBFE0
3FFFE0
3FFFE0
0FFFE0
07FBE0
0007E0
000FC0
01FFC0
01FF80
01FF00
01FE00
01F800
ENDCHAR
STARTCHAR Gcommaaccent
ENCODING 290
SWIDTH 665 0
DWIDTH 24 0
BBX 21 34 1 -9
BITMAP
00FFC0
03FFF0
07FFF8
0FFFF8
1FFFF0
3F8070
7F0020
7E0000
7C0000
FC0000
F80000
F80000
F80078
F80078
F80078
FC0078
7C0078
7E0078
7F0078
3F8078
1FFFF8
0FFFF8
07FFF8
03FFF0
00FFC0
000400
000000
001C00
003E00
003E00
003E00
000C00
000C00
000800
ENDCHAR
STARTCHAR gcommaaccent
ENCODING 291
SWIDTH 607 0
DWIDTH 22 0
BBX 19 35 1 -7
BITMAP
00C000
01C000
01E000
01E000
01F000
01E000
00C000
000000
004000
07F820
0FFE60
3FFFE0
3FFFE0
7F3FE0
7C0FE0
F807E0
F803E0
F803E0
F803E0
F803E0
F803E0
FC07E0
7C0FE0
7FBFE0
3FFFE0
3FFFE0
0FFFE0
07FBE0
0007E0
000FC0
01FFC0
01FF80
01FF00
01FE00
01F800
ENDCHAR
STARTCHAR Hcircumflex
ENCODING 292
SWIDTH 689 0
DWIDTH 25 0
BBX 21 33 2 0
BITMAP
002000
007000
00F800
01FC00
03DE00
018C00
010400
000000
F801F8
F801F8
F801F8
F801F8
F801F8
F801F8
F801F8
F801F8
F801F8
F801F8
FFFFF8
FFFFF8
FFFFF8
FFFFF8
FFFFF8
F801F8
F801F8
F801F8
F801F8
F801F8
F801F8
F801F8
F801F8
F801F8
F801F8
ENDCHAR
STARTCHAR hcircumflex
ENCODING 293
SWIDTH 562 0
DWIDTH 20 0
BBX 17 27 2 0
BITMAP
002000
F87000
F9F800
FBFC00
FBFE00
FB8C00
F90000
F80000
FFF000
FFF800
FFFC00
FFFE00
FFFF00
FC1F00
F81F00
F80F80
F80F80
F80F80
F80F80
F80F80
F80F80
F80F80
F80F80
F80F80
F80F80
F80F80
F80F80
ENDCHAR
STARTCHAR Hbar
ENCODING 294
SWIDTH 689 0
DWIDTH 25 0
BBX 23 25 1 0
BITMAP
7C00FC
7C00FC
7C00FC
FFFFFE
FFFFFE
FFFFFE
FFFFFE
FFFFFE
7C00FC
7C00FC
7FFFFC
7FFFFC
7FFFFC
7FFFFC
7FFFFC
7C00FC
7C00FC
7C00FC
7C00FC
7C00FC
7C00FC
7C00FC
7C00FC
7C00FC
7C00FC
ENDCHAR
STARTCHAR hbar
ENCODING 295
SWIDTH 562 0
DWIDTH 20 0
BBX 19 26 0 0
BITMAP
3E0000
FF0000
FF0000
FF0000
FF0000
3E0000
3E0000
3FFC00
3FFE00
3FFF00
3FFF80
3FFFC0
3F07C0
3E07C0
3E03E0
3E03E0
3E03E0
3E03E0
3E03E0
3E03E0
3E03E0
3E03E0
3E03E0
3E03E0
3E03E0
3E03E0
ENDCHAR
STARTCHAR Itilde
ENCODING 296
SWIDTH 270 0
DWIDTH 10 0
BBX 12 33 -1 0
BITMAP
38E0
7CF0
FFF0
FFF0
F7E0
F1C0
0000
0000
1F00
1F00
1F00
1F00
1F00
1F00
1F00
1F00
1F00
1F00
1F00
1F00
1F00
1F00
1F00
1F00
1F00
1F00
1F00
1F00
1F00
1F00
1F00
1F00
1F00
ENDCHAR
STARTCHAR itilde
ENCODING 297
SWIDTH 235 0
DWIDTH 8 0
BBX 12 26 -2 0
BITMAP
3870
7E70
7FF0
FFF0
73F0
71E0
0000
0F80
0F80
0F80
0F80
0F80
0F80
0F80
0F80
0F80
0F80
0F80
0F80
0F80
0F80
0F80
0F80
0F80
0F80
0F80
ENDCHAR
STARTCHAR Imacron
ENCODING 298
SWIDTH 270 0
DWIDTH 10 0
BBX 9 30 0 0
BITMAP
FF80
FF80
FF80
FF80
0000
3E00
3E00
3E00
3E00
3E00
3E00
3E00
3E00
3E00
3E00
3E00
3E00
3E00
3E00
3E00
3E00
3E00
3E00
3E00
3E00
3E00
3E00
3E00
3E00
3E00
ENDCHAR
STARTCHAR imacron
ENCODING 299
SWIDTH 235 0
DWIDTH 8 0
BBX 9 24 0 0
BITMAP
FF80
FF80
FF80
FF80
0000
3E00
3E00
3E00
3E00
3E00
3E00
3E00
3E00
3E00
3E00
3E00
3E00
3E00
3E00
3E00
3E00
3E00
3E00
3E00
ENDCHAR
STARTCHAR Ibreve
ENCODING 300
SWIDTH 270 0
DWIDTH 10 0
BBX 8 31 1 0
BITMAP
E7
FF
FF
7E
18
00
7C
7C
7C
7C
7C
7C
7C
7C
7C
7C
7C
7C
7C
7C
7C
7C
7C
7C
7C
7C
7C
7C
7C
7C
7C
ENDCHAR
STARTCHAR ibreve
ENCODING 301
SWIDTH 235 0
DWIDTH 8 0
BBX 8 25 0 0
BITMAP
E7
FF
7F
7E
08
00
3E
3E
3E
3E
3E
3E
3E
3E
3E
3E
3E
3E
3E
3E
3E
3E
3E
3E
3E
ENDCHAR
STARTCHAR Iogonek
ENCODING 302
SWIDTH 270 0
DWIDTH 10 0
BBX 8 31 1 -6
BITMAP
7C
7C
7C
7C
7C
7C
7C
7C
7C
7C
7C
7C
7C
7C
7C
7C
7C
7C
7C
7C
7C
7C
7C
7C
7C
70
70
F4
FE
FF
7E
ENDCHAR
STARTCHAR iogonek
ENCODING 303
SWIDTH 235 0
DWIDTH 8 0
BBX 7 33 1 -6
BITMAP
78
FC
FC
FC
FC
78
00
00
7C
7C
7C
7C
7C
7C
7C
7C
7C
7C
7C
7C
7C
7C
7C
7C
7C
7C
7C
70
E0
E0
FC
FE
7C
ENDCHAR
STARTCHAR Idotaccent
ENCODING 304
SWIDTH 270 0
DWIDTH 10 0
BBX 5 31 2 0
BITMAP
30
78
78
78
30
00
F8
F8
F8
F8
F8
F8
F8
F8
F8
F8
F8
F8
F8
F8
F8
F8
F8
F8
F8
F8
F8
F8
F8
F8
F8
ENDCHAR
STARTCHAR dotlessi
ENCODING 305
SWIDTH 235 0
DWIDTH 8 0
BBX 5 19 2 0
BITMAP
F8
F8
F8
F8
F8
F8
F8
F8
F8
F8
F8
F8
F8
F8
F8
F8
F8
F8
F8
ENDCHAR
STARTCHAR IJ
ENCODING 306
SWIDTH 687 0
DWIDTH 25 0
BBX 21 25 2 0
BITMAP
F800F8
F800F8
F800F8
F800F8
F800F8
F800F8
F800F8
F800F8
F800F8
F800F8
F800F8
F800F8
F800F8
F800F8
F800F8
F800F8
F801F8
F801F0
F803F0
F887F0
F8FFE0
F8FFC0
F8FF80
F8FF00
F8FC00
ENDCHAR
STARTCHAR ij
ENCODING 307
SWIDTH 474 0
DWIDTH 17 0
BBX 15 34 1 -7
BITMAP
783C
FC7E
FC7E
FC7E
FC7E
783C
0000
0000
7C7C
7C7C
7C7C
7C7C
7C7C
7C7C
7C7C
7C7C
7C7C
7C7C
7C7C
7C7C
7C7C
7C7C
7C7C
7C7C
7C7C
7C7C
7C7C
00FC
01F8
3FF8
3FF0
3FE0
3FC0
3F00
ENDCHAR
STARTCHAR Jcircumflex
ENCODING 308
SWIDTH 416 0
DWIDTH 15 0
BBX 15 33 0 0
BITMAP
0020
0070
00F8
01FC
03FE
038C
0104
0000
00F8
00F8
00F8
00F8
00F8
00F8
00F8
00F8
00F8
00F8
00F8
00F8
00F8
00F8
00F8
00F8
00F8
01F8
03F0
87F0
FFE0
FFE0
FFC0
FF00
FC00
ENDCHAR
STARTCHAR jcircumflex
ENCODING 309
SWIDTH 237 0
DWIDTH 9 0
BBX 14 34 -5 -7
BITMAP
0040
00E0
01F0
07F8
07FC
0718
0200
0000
01F0
01F0
01F0
01F0
01F0
01F0
01F0
01F0
01F0
01F0
01F0
01F0
01F0
01F0
01F0
01F0
01F0
01F0
03F0
03E0
07E0
FFC0
FFC0
FF80
FF00
FC00
ENDCHAR
STARTCHAR Kcommaaccent
ENCODING 310
SWIDTH 625 0
DWIDTH 23 0
BBX 20 34 2 -9
BITMAP
F803F0
F807E0
F807C0
F80FC0
F81F80
F83F00
F83E00
F87E00
F8FC00
F8F800
F9F800
FBF800
FFFC00
FFFC00
FFFE00
FFBE00
FF3F00
FE1F00
FC1F80
FC0F80
F80FC0
F807E0
F807E0
F803F0
F803F0
000000
000000
01E000
01F000
01F000
01F000
006000
00E000
00C000
ENDCHAR
STARTCHAR kcommaaccent
ENCODING 311
SWIDTH 539 0
DWIDTH 19 0
BBX 17 35 2 -9
BITMAP
F80000
F80000
F80000
F80000
F80000
F80000
F80000
F80F80
F81F00
F83F00
F87E00
F8FC00
F8F800
F9F000
FBF000
FFE000
FFF000
FFF800
FFF800
FFFC00
FE7C00
FC7E00
F83E00
F83F00
F81F00
F80F80
000000
000000
038000
07C000
07C000
03C000
01C000
018000
018000
ENDCHAR
STARTCHAR kgreenlandic
ENCODING 312
SWIDTH 539 0
DWIDTH 19 0
BBX 17 19 2 0
BITMAP
F80F80
F81F00
F83F00
F87E00
F8FC00
F8F800
F9F000
FBF000
FFE000
FFF000
FFF800
FFF800
FFFC00
FE7C00
FC7E00
F83E00
F83F00
F81F00
F80F80
ENDCHAR
STARTCHAR Lacute
ENCODING 313
SWIDTH 562 0
DWIDTH 20 0
BBX 18 32 2 0
BITMAP
002000
007000
00F800
01FC00
03F000
03C000
018000
F80000
F80000
F80000
F80000
F80000
F80000
F80000
F80000
F80000
F80000
F80000
F80000
F80000
F80000
F80000
F80000
F80000
F80000
F80000
F80000
FFFFC0
FFFFC0
FFFFC0
FFFFC0
FFFFC0
ENDCHAR
STARTCHAR lacute
ENCODING 314
SWIDTH 235 0
DWIDTH 8 0
BBX 10 35 2 0
BITMAP
0200
0700
0F80
1FC0
3F00
3C00
1800
0000
0000
F800
F800
F800
F800
F800
F800
F800
F800
F800
F800
F800
F800
F800
F800
F800
F800
F800
F800
F800
F800
F800
F800
F800
F800
F800
F800
ENDCHAR
STARTCHAR Lcommaaccent
ENCODING 315
SWIDTH 562 0
DWIDTH 20 0
BBX 18 34 2 -9
BITMAP
F80000
F80000
F80000
F80000
F80000
F80000
F80000
F80000
F80000
F80000
F80000
F80000
F80000
F80000
F80000
F80000
F80000
F80000
F80000
F80000
FFFFC0
FFFFC0
FFFFC0
FFFFC0
FFFFC0
000000
000000
03C000
03C000
03E000
03C000
00C000
01C000
018000
ENDCHAR
STARTCHAR lcommaaccent
ENCODING 316
SWIDTH 235 0
DWIDTH 8 0
BBX 5 35 2 -9
BITMAP
F8
F8
F8
F8
F8
F8
F8
F8
F8
F8
F8
F8
F8
F8
F8
F8
F8
F8
F8
F8
F8
F8
F8
F8
F8
F8
00
00
F0
F8
F8
F8
30
70
60
ENDCHAR
STARTCHAR Lcaron
ENCODING 317
SWIDTH 562 0
DWIDTH 20 0
BBX 18 25 2 0
BITMAP
F8F000
F8F000
F8F000
F8F000
F87000
F87000
F86000
F80000
F80000
F80000
F80000
F80000
F80000
F80000
F80000
F80000
F80000
F80000
F80000
F80000
FFFFC0
FFFFC0
FFFFC0
FFFFC0
FFFFC0
ENDCHAR
STARTCHAR lcaron
ENCODING 318
SWIDTH 369 0
DWIDTH 13 0
BBX 11 26 2 0
BITMAP
F800
F9E0
F9E0
F9E0
F9E0
F8E0
F8E0
F8C0
F800
F800
F800
F800
F800
F800
F800
F800
F800
F800
F800
F800
F800
F800
F800
F800
F800
F800
ENDCHAR
STARTCHAR Ldot
ENCODING 319
SWIDTH 745 0
DWIDTH 27 0
BBX 23 25 2 0
BITMAP
F80000
F80000
F80000
F80000
F80000
F80000
F80000
F80000
F80000
F80008
F8003C
F8007E
F8007E
F8007E
F8003C
F80000
F80000
F80000
F80000
F80000
FFFFC0
FFFFC0
FFFFC0
FFFFC0
FFFFC0
ENDCHAR
STARTCHAR ldotaccent
ENCODING 320
SWIDTH 463 0
DWIDTH 17 0
BBX 13 26 2 0
BITMAP
F800
F800
F800
F800
F800
F800
F800
F800
F800
F800
F800
F8F0
F9F8
F9F8
F9F8
F8F0
F800
F800
F800
F800
F800
F800
F800
F800
F800
F800
ENDCHAR
STARTCHAR Lslash
ENCODING 321
SWIDTH 585 0
DWIDTH 21 0
BBX 21 25 0 0
BITMAP
1F0000
1F0000
1F0000
1F0000
1F0000
1F0000
1F0000
1F2000
1FE000
1FE000
1FE000
1FE000
7FC000
FF0000
FF0000
FF0000
DF0000
1F0000
1F0000
1F0000
1FFFF8
1FFFF8
1FFFF8
1FFFF8
1FFFF8
ENDCHAR
STARTCHAR lslash
ENCODING 322
SWIDTH 319 0
DWIDTH 12 0
BBX 11 26 0 0
BITMAP
1F00
1F00
1F00
1F00
1F00
1F00
1F00
1F00
1F20
1FE0
1FE0
1FE0
1FE0
7FC0
FF00
FF00
FF00
DF00
1F00
1F00
1F00
1F00
1F00
1F00
1F00
1F00
ENDCHAR
STARTCHAR Nacute
ENCODING 323
SWIDTH 689 0
DWIDTH 25 0
BBX 21 33 2 0
BITMAP
000400
000E00
001F00
003F00
007E00
007800
003000
000000
FC01F8
FE01F8
FE01F8
FF01F8
FF01F8
FF81F8
FFC1F8
FFC1F8
FFE1F8
FBE1F8
F9F1F8
F9F9F8
F8F9F8
F8FDF8
F87DF8
F83FF8
F83FF8
F81FF8
F81FF8
F80FF8
F80FF8
F807F8
F803F8
F803F8
F801F8
ENDCHAR
STARTCHAR nacute
ENCODING 324
SWIDTH 562 0
DWIDTH 20 0
BBX 17 28 2 0
BITMAP
001800
003800
007C00
00FE00
01F800
00F000
00C000
000000
000000
87F000
DFF800
FFFC00
FFFE00
FFFF00
FC1F00
F81F00
F80F80
F80F80
F80F80
F80F80
F80F80
F80F80
F80F80
F80F80
F80F80
F80F80
F80F80
F80F80
ENDCHAR
STARTCHAR Ncommaaccent
ENCODING 325
SWIDTH 689 0
DWIDTH 25 0
BBX 21 34 2 -9
BITMAP
FC01F8
FE01F8
FE01F8
FF01F8
FF01F8
FF81F8
FFC1F8
FFC1F8
FFE1F8
FBE1F8
F9F1F8
F9F9F8
F8F9F8
F8FDF8
F87DF8
F83FF8
F83FF8
F81FF8
F81FF8
F80FF8
F80FF8
F807F8
F803F8
F803F8
F801F8
000000
000000
007000
00F800
00F800
00F800
003000
003000
002000
ENDCHAR
STARTCHAR ncommaaccent
ENCODING 326
SWIDTH 562 0
DWIDTH 20 0
BBX 17 28 2 -9
BITMAP
87F000
DFF800
FFFC00
FFFE00
FFFF00
FC1F00
F81F00
F80F80
F80F80
F80F80
F80F80
F80F80
F80F80
F80F80
F80F80
F80F80
F80F80
F80F80
F80F80
000000
000000
03C000
03C000
03E000
03C000
00C000
01C000
018000
ENDCHAR
STARTCHAR Ncaron
ENCODING 327
SWIDTH 689 0
DWIDTH 25 0
BBX 21 33 2 0
BITMAP
018C00
03DE00
03FE00
01FC00
00F800
007000
002000
000000
FC01F8
FE01F8
FE01F8
FF01F8
FF01F8
FF81F8
FFC1F8
FFC1F8
FFE1F8
FBE1F8
F9F1F8
F9F9F8
F8F9F8
F8FDF8
F87DF8
F83FF8
F83FF8
F81FF8
F81FF8
F80FF8
F80FF8
F807F8
F803F8
F803F8
F801F8
ENDCHAR
STARTCHAR ncaron
ENCODING 328
SWIDTH 562 0
DWIDTH 20 0
BBX 17 27 2 0
BITMAP
042000
0E7000
0FF000
07E000
03C000
018000
000000
000000
87F000
DFF800
FFFC00
FFFE00
FFFF00
FC1F00
F81F00
F80F80
F80F80
F80F80
F80F80
F80F80
F80F80
F80F80
F80F80
F80F80
F80F80
F80F80
F80F80
ENDCHAR
STARTCHAR napostrophe
ENCODING 329
SWIDTH 694 0
DWIDTH 25 0
BBX 23 25 0 0
BITMAP
700000
F80000
F80000
F80000
300000
300000
610FC0
01BFF0
01FFF8
01FFFC
01FFFE
01F87E
01F03E
01E01E
01E01E
01E01E
01E01E
01E01E
01E01E
01E01E
01E01E
01E01E
01E01E
01E01E
01E01E
ENDCHAR
STARTCHAR Eng
ENCODING 330
SWIDTH 689 0
DWIDTH 25 0
BBX 21 32 2 -7
BITMAP
FC01F8
FE01F8
FE01F8
FF01F8
FF01F8
FF81F8
FFC1F8
FFC1F8
FFE1F8
FBE1F8
F9F1F8
F9F9F8
F8F9F8
F8FDF8
F87DF8
F83FF8
F83FF8
F81FF8
F81FF8
F80FF8
F80FF8
F807F8
F803F0
F803F0
F801F0
0003F0
0007E0
00FFE0
00FFC0
00FF80
00FF00
00FC00
ENDCHAR
STARTCHAR eng
ENCODING 331
SWIDTH 562 0
DWIDTH 20 0
BBX 17 26 2 -7
BITMAP
87F000
DFF800
FFFC00
FFFE00
FFFF00
FC1F00
F81F00
F80F80
F80F80
F80F80
F80F80
F80F80
F80F80
F80F80
F80F80
F80F80
F80F80
F80F80
F81F00
001F00
003F00
07FE00
07FE00
07FC00
07F000
07E000
ENDCHAR
STARTCHAR Omacron
ENCODING 332
SWIDTH 777 0
DWIDTH 28 0
BBX 26 31 1 0
BITMAP
007F8000
007F8000
007F8000
007F8000
00000000
00000000
00FFC000
03FFF000
07FFF800
0FFFFC00
1FFFFE00
3F807F00
7F003F80
7E001F80
7C000F80
FC000FC0
F80007C0
F80007C0
F80007C0
F80007C0
F80007C0
FC000FC0
7C000F80
7E001F80
7F003F80
3F807F00
1FFFFE00
0FFFFC00
07FFF800
03FFF000
00FFC000
ENDCHAR
STARTCHAR omacron
ENCODING 333
SWIDTH 579 0
DWIDTH 21 0
BBX 19 25 1 0
BITMAP
07FC00
07FC00
07FC00
07FC00
000000
004000
07FC00
0FFE00
3FFF80
3FFF80
7F3FC0
7C07C0
F807E0
F803E0
F803E0
F803E0
F803E0
F803E0
FC07E0
7E0FC0
7FBFC0
3FFF80
1FFF00
0FFE00
07F800
ENDCHAR
STARTCHAR Obreve
ENCODING 334
SWIDTH 777 0
DWIDTH 28 0
BBX 26 32 1 0
BITMAP
00738000
007F8000
007F8000
003F0000
000C0000
00000000
00000000
00FFC000
03FFF000
07FFF800
0FFFFC00
1FFFFE00
3F807F00
7F003F80
7E001F80
7C000F80
FC000FC0
F80007C0
F80007C0
F80007C0
F80007C0
F80007C0
FC000FC0
7C000F80
7E001F80
7F003F80
3F807F00
1FFFFE00
0FFFFC00
07FFF800
03FFF000
00FFC000
ENDCHAR
STARTCHAR obreve
ENCODING 335
SWIDTH 579 0
DWIDTH 21 0
BBX 19 26 1 0
BITMAP
03B800
03B800
03F800
01F800
006000
000000
004000
07FC00
0FFE00
3FFF80
3FFF80
7F3FC0
7C07C0
F807E0
F803E0
F803E0
F803E0
F803E0
F803E0
FC07E0
7E0FC0
7FBFC0
3FFF80
1FFF00
0FFE00
07F800
ENDCHAR
STARTCHAR Ohungarumlaut
ENCODING 336
SWIDTH 777 0
DWIDTH 28 0
BBX 26 35 1 0
BITMAP
00080000
001C2000
003E7000
007EF800
007DF800
00F9F000
0073E000
0021C000
00000000
00000000
00FFC000
03FFF000
07FFF800
0FFFFC00
1FFFFE00
3F807F00
7F003F80
7E001F80
7C000F80
FC000FC0
F80007C0
F80007C0
F80007C0
F80007C0
F80007C0
FC000FC0
7C000F80
7E001F80
7F003F80
3F807F00
1FFFFE00
0FFFFC00
07FFF800
03FFF000
00FFC000
ENDCHAR
STARTCHAR ohungarumlaut
ENCODING 337
SWIDTH 579 0
DWIDTH 21 0
BBX 19 28 1 0
BITMAP
008000
01C200
01E700
03F7C0
07EFC0
0F9F00
073E00
021C00
004800
07FC00
0FFE00
3FFF80
3FFF80
7F3FC0
7C07C0
F807E0
F803E0
F803E0
F803E0
F803E0
F803E0
FC07E0
7E0FC0
7FBFC0
3FFF80
1FFF00
0FFE00
07F800
ENDCHAR
STARTCHAR OE
ENCODING 338
SWIDTH 1125 0
DWIDTH 41 0
BBX 38 26 1 -1
BITMAP
00FFC7FFFC
03FFF7FFFC
07FFFFFFFC
0FFFFFFFFC
1FFFFFFFFC
3F807FC000
7F003FC000
7E001FC000
7C000FC000
FC000FC000
F80007FFC0
F80007FFC0
F80007FFC0
F80007FFC0
F80007FFC0
FC000FC000
7C000FC000
7E001FC000
7F003FC000
3F807FC000
1FFFFFFFFC
0FFFFFFFFC
07FFFFFFFC
03FFF7FFFC
00FFC7FFFC
0004000000
ENDCHAR
STARTCHAR oe
ENCODING 339
SWIDTH 924 0
DWIDTH 33 0
BBX 32 20 1 0
BITMAP
00400100
07FC1FF0
0FFE3FFC
3FFFFFFE
3FFFFFFF
7F3FFE7E
7C07F8FC
F807F0F8
F803E1F0
F803E3F0
F803E7E0
F803E7C0
F803EF80
FC07FF08
7E0FFE1C
7FBFFEFE
3FFFFFFF
1FFF7FFE
0FFE3FFC
07F80FF0
ENDCHAR
STARTCHAR Racute
ENCODING 340
SWIDTH 651 0
DWIDTH 23 0
BBX 20 34 2 0
BITMAP
000800
001C00
003E00
007F00
00FC00
00F000
006000
000000
000000
FFFC00
FFFF00
FFFF80
FFFFC0
FFFFE0
F807E0
F803F0
F801F0
F801F0
F801F0
F801F0
F801F0
F801F0
F803F0
F80FE0
FFFFE0
FFFFC0
FFFF80
FFFF00
FFFF00
F81F80
F80F80
F80FC0
F807C0
F807C0
ENDCHAR
STARTCHAR racute
ENCODING 341
SWIDTH 414 0
DWIDTH 15 0
BBX 13 28 2 0
BITMAP
00C0
01C0
03E0
07F0
0FC0
0780
0600
0000
0000
83F8
CFF8
FFF8
FFF8
FFF8
FC00
F800
F800
F800
F800
F800
F800
F800
F800
F800
F800
F800
F800
F800
ENDCHAR
STARTCHAR Rcommaaccent
ENCODING 342
SWIDTH 651 0
DWIDTH 23 0
BBX 20 34 2 -9
BITMAP
FFFC00
FFFF00
FFFF80
FFFFC0
FFFFE0
F807E0
F803F0
F801F0
F801F0
F801F0
F801F0
F801F0
F801F0
F803F0
F80FE0
FFFFE0
FFFFC0
FFFF80
FFFF00
FFFF00
F81F80
F80F80
F80FC0
F807C0
F807C0
000000
000000
00E000
01F000
01F000
00F000
007000
006000
006000
ENDCHAR
STARTCHAR rcommaaccent
ENCODING 343
SWIDTH 414 0
DWIDTH 15 0
BBX 13 28 2 -9
BITMAP
83F8
CFF8
FFF8
FFF8
FFF8
FC00
F800
F800
F800
F800
F800
F800
F800
F800
F800
F800
F800
F800
F800
0000
0000
F000
F000
F800
F000
3000
7000
6000
ENDCHAR
STARTCHAR Rcaron
ENCODING 344
SWIDTH 651 0
DWIDTH 23 0
BBX 20 33 2 0
BITMAP
031800
07BC00
07FC00
03F800
00F000
006000
000000
000000
FFFC00
FFFF00
FFFF80
FFFFC0
FFFFE0
F807E0
F803F0
F801F0
F801F0
F801F0
F801F0
F801F0
F801F0
F803F0
F80FE0
FFFFE0
FFFFC0
FFFF80
FFFF00
FFFF00
F81F80
F80F80
F80FC0
F807C0
F807C0
ENDCHAR
STARTCHAR rcaron
ENCODING 345
SWIDTH 414 0
DWIDTH 15 0
BBX 13 27 2 0
BITMAP
3180
7BC0
7FC0
3F80
1F00
0E00
0000
0000
83F8
CFF8
FFF8
FFF8
FFF8
FC00
F800
F800
F800
F800
F800
F800
F800
F800
F800
F800
F800
F800
F800
ENDCHAR
STARTCHAR Sacute
ENCODING 346
SWIDTH 610 0
DWIDTH 22 0
BBX 20 34 1 0
BITMAP
000400
000E00
001F00
003F80
007E00
007800
003000
000000
000000
0FFFE0
1FFFE0
3FFFE0
7FFFE0
FFFFE0
FC0000
F80000
F80000
F80000
FC0000
7FFE00
7FFF80
3FFFC0
1FFFE0
07FFE0
0003F0
0001F0
0001F0
0001F0
0003F0
7FFFE0
7FFFE0
7FFFC0
7FFF80
7FFE00
ENDCHAR
STARTCHAR sacute
ENCODING 347
SWIDTH 523 0
DWIDTH 19 0
BBX 17 28 1 0
BITMAP
000800
001C00
007C00
00FE00
01FC00
00F000
00C000
000000
000000
07FF00
3FFF00
7FFF00
7FFF00
FFFF00
F80000
F80000
FFF000
7FFE00
7FFF00
3FFF80
1FFF80
000F80
000F80
FFFF80
FFFF80
FFFF00
FFFE00
FFFC00
ENDCHAR
STARTCHAR Scircumflex
ENCODING 348
SWIDTH 610 0
DWIDTH 22 0
BBX 20 33 1 0
BITMAP
006000
00F000
01F800
03FC00
07FE00
039C00
010800
000000
0FFFE0
1FFFE0
3FFFE0
7FFFE0
FFFFE0
FC0000
F80000
F80000
F80000
FC0000
7FFE00
7FFF80
3FFFC0
1FFFE0
07FFE0
0003F0
0001F0
0001F0
0001F0
0003F0
7FFFE0
7FFFE0
7FFFC0
7FFF80
7FFE00
ENDCHAR
STARTCHAR scircumflex
ENCODING 349
SWIDTH 523 0
DWIDTH 19 0
BBX 17 27 1 0
BITMAP
008000
01C000
03E000
07F000
0F7800
063000
041000
000000
07FF00
3FFF00
7FFF00
7FFF00
FFFF00
F80000
F80000
FFF000
7FFE00
7FFF00
3FFF80
1FFF80
000F80
000F80
FFFF80
FFFF80
FFFF00
FFFE00
FFFC00
ENDCHAR
STARTCHAR Scedilla
ENCODING 350
SWIDTH 610 0
DWIDTH 22 0
BBX 20 33 1 -8
BITMAP
0FFFE0
1FFFE0
3FFFE0
7FFFE0
FFFFE0
FC0000
F80000
F80000
F80000
FC0000
7FFE00
7FFF80
3FFFC0
1FFFE0
07FFE0
0003F0
0001F0
0001F0
0001F0
0003F0
7FFFE0
7FFFE0
7FFFC0
7FFF80
7FFE00
006000
006000
00F800
003C00
013C00
01FC00
03F800
00F000
ENDCHAR
STARTCHAR scedilla
ENCODING 351
SWIDTH 523 0
DWIDTH 19 0
BBX 17 27 1 -8
BITMAP
07FF00
3FFF00
7FFF00
7FFF00
FFFF00
F80000
F80000
FFF000
7FFE00
7FFF00
3FFF80
1FFF80
000F80
000F80
FFFF80
FFFF80
FFFF00
FFFE00
FFFC00
00C000
01C000
01F000
00F000
047000
07F000
07F000
03E000
ENDCHAR
STARTCHAR Scaron
ENCODING 352
SWIDTH 610 0
DWIDTH 22 0
BBX 20 33 1 0
BITMAP
030800
039C00
03FC00
01F800
00F000
006000
000000
000000
0FFFE0
1FFFE0
3FFFE0
7FFFE0
FFFFE0
FC0000
F80000
F80000
F80000
FC0000
7FFE00
7FFF80
3FFFC0
1FFFE0
07FFE0
0003F0
0001F0
0001F0
0001F0
0003F0
7FFFE0
7FFFE0
7FFFC0
7FFF80
7FFE00
ENDCHAR
STARTCHAR scaron
ENCODING 353
SWIDTH 523 0
DWIDTH 19 0
BBX 17 27 1 0
BITMAP
061000
073800
07F800
03F000
01E000
00C000
000000
000000
07FF00
3FFF00
7FFF00
7FFF00
FFFF00
F80000
F80000
FFF000
7FFE00
7FFF00
3FFF80
1FFF80
000F80
000F80
FFFF80
FFFF80
FFFF00
FFFE00
FFFC00
ENDCHAR
STARTCHAR Tcommaaccent
ENCODING 354
SWIDTH 578 0
DWIDTH 21 0
BBX 20 34 0 -9
BITMAP
FFFFF0
FFFFF0
FFFFF0
FFFFF0
FFFFF0
00F800
00F800
00F800
00F800
00F800
00F800
00F800
00F800
00F800
00F800
00F800
00F800
00F800
00F800
00F800
00F800
00F800
00F800
00F800
00F800
000000
000000
007000
00F800
00F800
00F800
003000
003000
002000
ENDCHAR
STARTCHAR tcommaaccent
ENCODING 355
SWIDTH 437 0
DWIDTH 16 0
BBX 14 35 1 -9
BITMAP
3E00
3E00
3E00
3E00
3E00
3E00
3E00
FFFC
FFFC
FFFC
FFFC
FFFC
3E00
3E00
3E00
3E00
3E00
3E00
3E00
3E00
3F00
1FFC
1FFC
0FFC
07FC
01FC
0000
0000
0780
0780
0F80
0780
0380
0380
0300
ENDCHAR
STARTCHAR Tcaron
ENCODING 356
SWIDTH 578 0
DWIDTH 21 0
BBX 20 33 0 0
BITMAP
018C00
03DE00
03FE00
01FC00
00F800
007000
002000
000000
FFFFF0
FFFFF0
FFFFF0
FFFFF0
FFFFF0
00F800
00F800
00F800
00F800
00F800
00F800
00F800
00F800
00F800
00F800
00F800
00F800
00F800
00F800
00F800
00F800
00F800
00F800
00F800
00F800
ENDCHAR
STARTCHAR tcaron
ENCODING 357
SWIDTH 570 0
DWIDTH 21 0
BBX 20 26 1 0
BITMAP
3E0000
3E01E0
3E01E0
3E01F0
3E01E0
3E0060
3E00E0
FFFCC0
FFFC00
FFFC00
FFFC00
FFFC00
3E0000
3E0000
3E0000
3E0000
3E0000
3E0000
3E0000
3E0000
3F0000
1FFC00
1FFC00
0FFC00
07FC00
01FC00
ENDCHAR
STARTCHAR Tbar
ENCODING 358
SWIDTH 578 0
DWIDTH 21 0
BBX 20 25 0 0
BITMAP
FFFFF0
FFFFF0
FFFFF0
FFFFF0
FFFFF0
00F800
00F800
00F800
00F800
00F800
00F800
00F800
07FF00
07FF00
07FF00
07FF00
07FF00
00F800
00F800
00F800
00F800
00F800
00F800
00F800
00F800
ENDCHAR
STARTCHAR tbar
ENCODING 359
SWIDTH 437 0
DWIDTH 16 0
BBX 14 26 1 0
BITMAP
3E00
3E00
3E00
3E00
3E00
3E00
3E00
FFFC
FFFC
FFFC
FFFC
FFFC
3E00
3E00
FFC0
FFC0
FFC0
FFC0
3E00
3E00
3F00
1FFC
1FFC
0FFC
07FC
01FC
ENDCHAR
STARTCHAR Utilde
ENCODING 360
SWIDTH 673 0
DWIDTH 24 0
BBX 20 33 2 0
BITMAP
038700
07E700
0FFF00
0FFF00
0F3E00
071C00
000000
000000
F801F0
F801F0
F801F0
F801F0
F801F0
F801F0
F801F0
F801F0
F801F0
F801F0
F801F0
F801F0
F801F0
F801F0
F801F0
F801F0
F801F0
FC03F0
7E03F0
7F0FE0
3FFFE0
3FFFC0
1FFF80
07FE00
01F800
ENDCHAR
STARTCHAR utilde
ENCODING 361
SWIDTH 562 0
DWIDTH 20 0
BBX 16 26 2 0
BITMAP
0E1C
1F9C
3FFC
3FFC
3CF8
1C70
0000
F00F
F00F
F00F
F00F
F00F
F00F
F00F
F00F
F00F
F00F
F00F
F01F
F81F
F83F
FFFF
7FFF
3FFF
1FFB
0FE1
ENDCHAR
STARTCHAR Umacron
ENCODING 362
SWIDTH 673 0
DWIDTH 24 0
BBX 20 30 2 0
BITMAP
03FE00
03FE00
03FE00
03FE00
000000
F801F0
F801F0
F801F0
F801F0
F801F0
F801F0
F801F0
F801F0
F801F0
F801F0
F801F0
F801F0
F801F0
F801F0
F801F0
F801F0
F801F0
FC03F0
7E03F0
7F0FE0
3FFFE0
3FFFC0
1FFF80
07FE00
01F800
ENDCHAR
STARTCHAR umacron
ENCODING 363
SWIDTH 562 0
DWIDTH 20 0
BBX 16 24 2 0
BITMAP
0FF8
0FF8
0FF8
0FF8
0000
F00F
F00F
F00F
F00F
F00F
F00F
F00F
F00F
F00F
F00F
F00F
F01F
F81F
F83F
FFFF
7FFF
3FFF
1FFB
0FE1
ENDCHAR
STARTCHAR Ubreve
ENCODING 364
SWIDTH 673 0
DWIDTH 24 0
BBX 20 31 2 0
BITMAP
039C00
03FC00
01FC00
01F800
002000
000000
F801F0
F801F0
F801F0
F801F0
F801F0
F801F0
F801F0
F801F0
F801F0
F801F0
F801F0
F801F0
F801F0
F801F0
F801F0
F801F0
F801F0
FC03F0
7E03F0
7F0FE0
3FFFE0
3FFFC0
1FFF80
07FE00
01F800
ENDCHAR
STARTCHAR ubreve
ENCODING 365
SWIDTH 562 0
DWIDTH 20 0
BBX 16 25 2 0
BITMAP
0E70
0FF0
0FF0
07E0
0180
0000
F00F
F00F
F00F
F00F
F00F
F00F
F00F
F00F
F00F
F00F
F00F
F01F
F81F
F83F
FFFF
7FFF
3FFF
1FFB
0FE1
ENDCHAR
STARTCHAR Uring
ENCODING 366
SWIDTH 673 0
DWIDTH 24 0
BBX 20 33 2 0
BITMAP
00F000
01F800
019C00
019C00
01F800
00F800
000000
000000
F801F0
F801F0
F801F0
F801F0
F801F0
F801F0
F801F0
F801F0
F801F0
F801F0
F801F0
F801F0
F801F0
F801F0
F801F0
F801F0
F801F0
FC03F0
7E03F0
7F0FE0
3FFFE0
3FFFC0
1FFF80
07FE00
01F800
ENDCHAR
STARTCHAR uring
ENCODING 367
SWIDTH 562 0
DWIDTH 20 0
BBX 16 26 2 0
BITMAP
03C0
07E0
0670
0670
07E0
03E0
0000
F00F
F00F
F00F
F00F
F00F
F00F
F00F
F00F
F00F
F00F
F00F
F01F
F81F
F83F
FFFF
7FFF
3FFF
1FFB
0FE1
ENDCHAR
STARTCHAR Uhungarumlaut
ENCODING 368
SWIDTH 673 0
DWIDTH 24 0
BBX 20 35 2 0
BITMAP
004000
00E100
01F380
01F7C0
03E7C0
07CF80
039F00
010E00
000400
000000
F801F0
F801F0
F801F0
F801F0
F801F0
F801F0
F801F0
F801F0
F801F0
F801F0
F801F0
F801F0
F801F0
F801F0
F801F0
F801F0
F801F0
FC03F0
7E03F0
7F0FE0
3FFFE0
3FFFC0
1FFF80
07FE00
01F800
ENDCHAR
STARTCHAR uhungarumlaut
ENCODING 369
SWIDTH 562 0
DWIDTH 20 0
BBX 16 28 2 0
BITMAP
0100
0384
07CE
07DF
0F9F
1F3E
0E7C
0438
0010
F00F
F00F
F00F
F00F
F00F
F00F
F00F
F00F
F00F
F00F
F00F
F01F
F81F
F83F
FFFF
7FFF
3FFF
1FFB
0FE1
ENDCHAR
STARTCHAR Uogonek
ENCODING 370
SWIDTH 673 0
DWIDTH 24 0
BBX 20 31 2 -6
BITMAP
F801F0
F801F0
F801F0
F801F0
F801F0
F801F0
F801F0
F801F0
F801F0
F801F0
F801F0
F801F0
F801F0
F801F0
F801F0
F801F0
F801F0
FC03F0
7E03F0
7F0FE0
3FFFE0
3FFFC0
1FFF80
07FE00
01F800
01C000
01C000
039000
03F800
03FC00
01F800
ENDCHAR
STARTCHAR uogonek
ENCODING 371
SWIDTH 562 0
DWIDTH 20 0
BBX 19 25 2 -6
BITMAP
F00F00
F00F00
F00F00
F00F00
F00F00
F00F00
F00F00
F00F00
F00F00
F00F00
F00F00
F01F00
F81F00
F83F00
FFFF00
7FFF00
3FFF00
1FFB00
0FE300
000700
000E00
000E00
000FC0
000FE0
0007C0
ENDCHAR
STARTCHAR Wcircumflex
ENCODING 372
SWIDTH 819 0
DWIDTH 30 0
BBX 25 33 2 0
BITMAP
00080000
001C0000
003E0000
007F8000
00FF8000
00738000
00010000
00000000
F83E0F80
F83E0F80
F83E0F80
F83E0F80
F83E0F80
F83E0F80
F83E0F80
F83E0F80
F83E0F80
F83E0F80
F83E0F80
F83E0F80
F83E0F80
F83E0F80
F83E0F80
F83E0F80
F83E0F80
F83E0F80
F83E0F80
FC3F0F80
7FFFFF80
7FFFFF00
3FFFFF00
1FFFFE00
0FE3F800
ENDCHAR
STARTCHAR wcircumflex
ENCODING 373
SWIDTH 756 0
DWIDTH 27 0
BBX 24 27 2 0
BITMAP
001000
003800
007C00
00FE00
01EF00
00C700
000200
000000
F07C1F
F07C1F
F07C1F
F07C1F
F07C1F
F07C1F
F07C1F
F07C1F
F07C1F
F07C1F
F07C1F
F07C1F
F07C1F
F87C3E
FDFF7E
FFFFFE
7FFFFC
3FFFF8
1FC7F0
ENDCHAR
STARTCHAR Ycircumflex
ENCODING 374
SWIDTH 620 0
DWIDTH 22 0
BBX 20 33 1 0
BITMAP
006000
00F000
01F800
03FC00
07FE00
039C00
010800
000000
F801F0
F801F0
F801F0
F801F0
F801F0
F801F0
F801F0
F801F0
F801F0
FC01F0
7C03F0
7E07E0
7FFFE0
3FFFC0
1FFF80
0FFF00
03FC00
00F800
00F800
00F800
00F800
00F800
00F800
00F800
00F800
ENDCHAR
STARTCHAR ycircumflex
ENCODING 375
SWIDTH 562 0
DWIDTH 20 0
BBX 16 34 2 -7
BITMAP
0180
03C0
07E0
0FF0
1FF8
0E70
0420
0000
F00F
F00F
F00F
F00F
F00F
F00F
F00F
F00F
F00F
F00F
F00F
F01F
F81F
F83F
FFFF
7FFF
3FFF
1FFF
0FFF
001F
003F
0FFE
0FFC
0FFC
0FF0
0FC0
ENDCHAR
STARTCHAR Ydieresis
ENCODING 376
SWIDTH 620 0
DWIDTH 22 0
BBX 20 31 1 0
BITMAP
078E00
079F00
079E00
030E00
000000
000000
F801F0
F801F0
F801F0
F801F0
F801F0
F801F0
F801F0
F801F0
F801F0
FC01F0
7C03F0
7E07E0
7FFFE0
3FFFC0
1FFF80
0FFF00
03FC00
00F800
00F800
00F800
00F800
00F800
00F800
00F800
00F800
ENDCHAR
STARTCHAR Zacute
ENCODING 377
SWIDTH 586 0
DWIDTH 21 0
BBX 19 34 1 0
BITMAP
000400
001E00
003E00
007F00
00FE00
007800
006000
000000
000000
FFFFE0
FFFFC0
FFFFC0
FFFF80
FFFF80
003F00
003F00
007E00
007E00
00FC00
00FC00
01F800
03F800
03F000
07F000
07E000
0FC000
0FC000
1F8000
1F8000
3FFFE0
3FFFE0
7FFFE0
7FFFE0
FFFFE0
ENDCHAR
STARTCHAR zacute
ENCODING 378
SWIDTH 481 0
DWIDTH 17 0
BBX 16 28 1 0
BITMAP
0010
0038
007C
01FC
03F8
01E0
00C0
0000
0000
FFFE
FFFE
FFFC
FFFC
FFF8
01F8
01F0
03E0
03E0
07C0
07C0
0F80
1F80
1F00
3FFF
3FFF
7FFF
7FFF
FFFF
ENDCHAR
STARTCHAR Zdotaccent
ENCODING 379
SWIDTH 586 0
DWIDTH 21 0
BBX 19 31 1 0
BITMAP
00E000
00F000
01F000
00F000
004000
000000
FFFFE0
FFFFC0
FFFFC0
FFFF80
FFFF80
003F00
003F00
007E00
007E00
00FC00
00FC00
01F800
03F800
03F000
07F000
07E000
0FC000
0FC000
1F8000
1F8000
3FFFE0
3FFFE0
7FFFE0
7FFFE0
FFFFE0
ENDCHAR
STARTCHAR zdotaccent
ENCODING 380
SWIDTH 481 0
DWIDTH 17 0
BBX 16 25 1 0
BITMAP
0180
03C0
07C0
03C0
0180
0000
FFFE
FFFE
FFFC
FFFC
FFF8
01F8
01F0
03E0
03E0
07C0
07C0
0F80
1F80
1F00
3FFF
3FFF
7FFF
7FFF
FFFF
ENDCHAR
STARTCHAR Zcaron
ENCODING 381
SWIDTH 586 0
DWIDTH 21 0
BBX 19 33 1 0
BITMAP
031800
07BC00
07FC00
03F800
01F000
006000
000000
000000
FFFFE0
FFFFC0
FFFFC0
FFFF80
FFFF80
003F00
003F00
007E00
007E00
00FC00
00FC00
01F800
03F800
03F000
07F000
07E000
0FC000
0FC000
1F8000
1F8000
3FFFE0
3FFFE0
7FFFE0
7FFFE0
FFFFE0
ENDCHAR
STARTCHAR zcaron
ENCODING 382
SWIDTH 481 0
DWIDTH 17 0
BBX 16 27 1 0
BITMAP
0C60
1EF0
1FF0
0FE0
03C0
0180
0000
0000
FFFE
FFFE
FFFC
FFFC
FFF8
01F8
01F0
03E0
03E0
07C0
07C0
0F80
1F80
1F00
3FFF
3FFF
7FFF
7FFF
FFFF
ENDCHAR
STARTCHAR AEacute
ENCODING 508
SWIDTH 988 0
DWIDTH 36 0
BBX 32 34 2 0
BITMAP
00000C00
00001C00
00003E00
00007F00
0000FC00
0000F800
00006000
00000000
00000000
03FFFFFF
07FFFFFF
1FFFFFFF
3FFFFFFF
3FFFFFFF
7F01F000
7C01F000
FC01F000
F801F000
F801F000
F801FFF0
F801FFF0
F801FFF0
F801FFF0
F801FFF0
FFFFF000
FFFFF000
FFFFF000
FFFFF000
FFFFF000
F801FFFF
F801FFFF
F801FFFF
F801FFFF
F801FFFF
ENDCHAR
STARTCHAR aeacute
ENCODING 509
SWIDTH 976 0
DWIDTH 35 0
BBX 34 28 1 0
BITMAP
0000040000
00000E0000
00003E0000
00007F0000
0000FE0000
0000780000
0000600000
0000000000
0040004000
07F827FC00
1FFE6FFF00
3FFFFFFF80
3FFFFFFFC0
7F3FFF9F80
7C0FFE3F00
F807FC7E00
F803F87C00
F803F8F800
F803F9F800
F803FBF000
F803FBE000
FC07FFC200
7C0FFF8700
7FBFFFBF80
3FFFFFFF80
3FFFFFFF80
1FFE6FFE00
07F823FC00
ENDCHAR
STARTCHAR Oslashacute
ENCODING 510
SWIDTH 777 0
DWIDTH 28 0
BBX 26 34 1 0
BITMAP
00008000
0001C000
0007C000
000FE000
001FC000
000F0000
000C0000
00000000
00000000
00FFDF00
03FFFE00
07FFFE00
0FFFFC00
1FFFFE00
3F80FF00
7F01FF80
7E03FF80
7C07CF80
FC07CFC0
F80F87C0
F81F07C0
F81E07C0
F83E07C0
F87C07C0
FCF80FC0
7CF00F80
7FF01F80
7FE03F80
3FC07F00
1FFFFE00
0FFFFC00
1FFFF800
3FFFF000
3EFFC000
ENDCHAR
STARTCHAR oslashacute
ENCODING 511
SWIDTH 579 0
DWIDTH 21 0
BBX 19 28 1 0
BITMAP
000C00
001C00
003E00
007F00
00FC00
00F800
006000
000000
004000
07FFE0
0FFFC0
3FFF80
3FFF80
7F1FC0
7C3FC0
F87FE0
F87BE0
F8FBE0
F9F3E0
FBE3E0
FBC3E0
FFC7E0
7F8FC0
7FBFC0
3FFF80
3FFF00
7FFE00
FFF800
ENDCHAR
STARTCHAR dotlessj
ENCODING 567
SWIDTH 237 0
DWIDTH 9 0
BBX 12 26 -5 -7
BITMAP
01F0
01F0
01F0
01F0
01F0
01F0
01F0
01F0
01F0
01F0
01F0
01F0
01F0
01F0
01F0
01F0
01F0
01F0
03F0
03E0
07E0
FFC0
FFC0
FF80
FF00
FC00
ENDCHAR
STARTCHAR circumflex
ENCODING 710
SWIDTH 267 0
DWIDTH 10 0
BBX 10 7 0 18
BITMAP
0800
1C00
3F00
7F80
FFC0
7380
2100
ENDCHAR
STARTCHAR caron
ENCODING 711
SWIDTH 267 0
DWIDTH 10 0
BBX 9 6 0 19
BITMAP
6100
F780
FF80
3F00
1E00
0C00
ENDCHAR
STARTCHAR breve
ENCODING 728
SWIDTH 220 0
DWIDTH 8 0
BBX 8 5 0 19
BITMAP
E7
FF
FF
7E
18
ENDCHAR
STARTCHAR dotaccent
ENCODING 729
SWIDTH 125 0
DWIDTH 5 0
BBX 5 5 0 19
BITMAP
60
F0
F8
F0
60
ENDCHAR
STARTCHAR ring
ENCODING 730
SWIDTH 192 0
DWIDTH 7 0
BBX 7 6 0 19
BITMAP
7C
FE
CE
CE
FE
7C
ENDCHAR
STARTCHAR ogonek
ENCODING 731
SWIDTH 212 0
DWIDTH 8 0
BBX 8 7 0 -6
BITMAP
38
70
70
E0
FE
FF
7C
ENDCHAR
STARTCHAR tilde
ENCODING 732
SWIDTH 321 0
DWIDTH 12 0
BBX 12 6 0 19
BITMAP
38E0
7CF0
FFF0
FFE0
F7E0
F3C0
ENDCHAR
STARTCHAR hungarumlaut
ENCODING 733
SWIDTH 384 0
DWIDTH 14 0
BBX 13 9 0 18
BITMAP
0800
1C20
3E70
3EF8
7CF8
F9F0
73E0
21C0
0080
ENDCHAR
STARTCHAR uni0312
ENCODING 786
SWIDTH 192 0
DWIDTH 7 0
BBX 5 8 1 19
BITMAP
20
70
60
F0
F8
F8
F8
70
ENDCHAR
STARTCHAR uni0315
ENCODING 789
SWIDTH 132 0
DWIDTH 5 0
BBX 5 7 0 18
BITMAP
70
F8
F8
F8
30
30
60
ENDCHAR
STARTCHAR uni0326
ENCODING 806
SWIDTH 193 0
DWIDTH 7 0
BBX 5 7 1 -9
BITMAP
70
F8
F8
78
38
30
30
ENDCHAR
STARTCHAR pi
ENCODING 960
SWIDTH 555 0
DWIDTH 20 0
BBX 18 19 1 0
BITMAP
FFFFC0
FFFFC0
FFFFC0
FFFFC0
FFFFC0
1E1E00
1E1E00
1E1E00
1E1E00
1E1E00
1E1E00
1E1E00
1E1E00
1E1E00
1E1E00
1E1E00
1E1E00
1E1E00
1E1E00
ENDCHAR
STARTCHAR Wgrave
ENCODING 7808
SWIDTH 819 0
DWIDTH 30 0
BBX 25 34 2 0
BITMAP
00C00000
00E00000
01F00000
03F80000
00FC0000
00780000
00180000
00000000
00000000
F83E0F80
F83E0F80
F83E0F80
F83E0F80
F83E0F80
F83E0F80
F83E0F80
F83E0F80
F83E0F80
F83E0F80
F83E0F80
F83E0F80
F83E0F80
F83E0F80
F83E0F80
F83E0F80
F83E0F80
F83E0F80
F83E0F80
FC3F0F80
7FFFFF80
7FFFFF00
3FFFFF00
1FFFFE00
0FE3F800
ENDCHAR
STARTCHAR wgrave
ENCODING 7809
SWIDTH 756 0
DWIDTH 27 0
BBX 24 28 2 0
BITMAP
010000
038000
07C000
0FE000
03F000
00F000
006000
000000
000000
F07C1F
F07C1F
F07C1F
F07C1F
F07C1F
F07C1F
F07C1F
F07C1F
F07C1F
F07C1F
F07C1F
F07C1F
F07C1F
F87C3E
FDFF7E
FFFFFE
7FFFFC
3FFFF8
1FC7F0
ENDCHAR
STARTCHAR Wacute
ENCODING 7810
SWIDTH 819 0
DWIDTH 30 0
BBX 25 34 2 0
BITMAP
00008000
0001C000
0003E000
000FE000
001FC000
000F0000
00060000
00000000
00000000
F83E0F80
F83E0F80
F83E0F80
F83E0F80
F83E0F80
F83E0F80
F83E0F80
F83E0F80
F83E0F80
F83E0F80
F83E0F80
F83E0F80
F83E0F80
F83E0F80
F83E0F80
F83E0F80
F83E0F80
F83E0F80
F83E0F80
FC3F0F80
7FFFFF80
7FFFFF00
3FFFFF00
1FFFFE00
0FE3F800
ENDCHAR
STARTCHAR wacute
ENCODING 7811
SWIDTH 756 0
DWIDTH 27 0
BBX 24 28 2 0
BITMAP
000100
000380
0007C0
000FE0
001F80
001E00
000C00
000000
000000
F07C1F
F07C1F
F07C1F
F07C1F
F07C1F
F07C1F
F07C1F
F07C1F
F07C1F
F07C1F
F07C1F
F07C1F
F07C1F
F87C3E
FDFF7E
FFFFFE
7FFFFC
3FFFF8
1FC7F0
ENDCHAR
STARTCHAR Wdieresis
ENCODING 7812
SWIDTH 819 0
DWIDTH 30 0
BBX 25 32 2 0
BITMAP
00400000
00E3C000
01F3C000
01F3C000
00E18000
00000000
00000000
F83E0F80
F83E0F80
F83E0F80
F83E0F80
F83E0F80
F83E0F80
F83E0F80
F83E0F80
F83E0F80
F83E0F80
F83E0F80
F83E0F80
F83E0F80
F83E0F80
F83E0F80
F83E0F80
F83E0F80
F83E0F80
F83E0F80
FC3F0F80
7FFFFF80
7FFFFF00
3FFFFF00
1FFFFE00
0FE3F800
ENDCHAR
STARTCHAR wdieresis
ENCODING 7813
SWIDTH 756 0
DWIDTH 27 0
BBX 24 25 2 0
BITMAP
008000
01C780
03E780
03E780
01C300
000000
F07C1F
F07C1F
F07C1F
F07C1F
F07C1F
F07C1F
F07C1F
F07C1F
F07C1F
F07C1F
F07C1F
F07C1F
F07C1F
F87C3E
FDFF7E
FFFFFE
7FFFFC
3FFFF8
1FC7F0
ENDCHAR
STARTCHAR Ygrave
ENCODING 7922
SWIDTH 620 0
DWIDTH 22 0
BBX 20 34 1 0
BITMAP
040000
0E0000
1F0000
1FC000
0FE000
03C000
008000
000000
000000
F801F0
F801F0
F801F0
F801F0
F801F0
F801F0
F801F0
F801F0
F801F0
FC01F0
7C03F0
7E07E0
7FFFE0
3FFFC0
1FFF80
0FFF00
03FC00
00F800
00F800
00F800
00F800
00F800
00F800
00F800
00F800
ENDCHAR
STARTCHAR ygrave
ENCODING 7923
SWIDTH 562 0
DWIDTH 20 0
BBX 16 35 2 -7
BITMAP
1000
3800
7C00
7E00
3F00
0F00
0600
0000
0000
F00F
F00F
F00F
F00F
F00F
F00F
F00F
F00F
F00F
F00F
F00F
F01F
F81F
F83F
FFFF
7FFF
3FFF
1FFF
0FFF
001F
003F
0FFE
0FFC
0FFC
0FF0
0FC0
ENDCHAR
STARTCHAR endash
ENCODING 8211
SWIDTH 418 0
DWIDTH 15 0
BBX 11 5 2 10
BITMAP
FFE0
FFE0
FFE0
FFE0
FFE0
ENDCHAR
STARTCHAR emdash
ENCODING 8212
SWIDTH 719 0
DWIDTH 26 0
BBX 22 5 2 10
BITMAP
FFFFFC
FFFFFC
FFFFFC
FFFFFC
FFFFFC
ENDCHAR
STARTCHAR quoteleft
ENCODING 8216
SWIDTH 246 0
DWIDTH 9 0
BBX 6 9 2 16
BITMAP
60
70
E0
F0
F8
F8
FC
F8
70
ENDCHAR
STARTCHAR quoteright
ENCODING 8217
SWIDTH 245 0
DWIDTH 9 0
BBX 6 9 1 16
BITMAP
78
7C
FC
FC
7C
3C
1C
38
10
ENDCHAR
STARTCHAR quotesinglbase
ENCODING 8218
SWIDTH 264 0
DWIDTH 10 0
BBX 6 9 2 -4
BITMAP
70
F8
FC
FC
FC
78
38
38
70
ENDCHAR
STARTCHAR quotedblleft
ENCODING 8220
SWIDTH 445 0
DWIDTH 16 0
BBX 13 9 2 16
BITMAP
6060
70E0
E1C0
F1E0
F9F0
F9F8
FDF8
F9F0
70F0
ENDCHAR
STARTCHAR quotedblright
ENCODING 8221
SWIDTH 444 0
DWIDTH 16 0
BBX 14 9 1 16
BITMAP
7870
7CF8
FCFC
FCFC
7CF8
3C78
1C38
3870
1030
ENDCHAR
STARTCHAR quotedblbase
ENCODING 8222
SWIDTH 463 0
DWIDTH 17 0
BBX 13 9 2 -4
BITMAP
7060
F9F0
FDF8
FDF8
FDF8
78F8
3870
3870
7060
ENDCHAR
STARTCHAR dagger
ENCODING 8224
SWIDTH 434 0
DWIDTH 16 0
BBX 13 33 1 -4
BITMAP
0F80
0F80
0F80
0F80
0F80
0F80
0F80
FFF8
FFF8
FFF8
FFF8
0F80
0F80
0F80
0F80
0F80
0F80
0F80
0F80
0F80
0F80
0F80
0F80
0F80
0F80
0F80
0F80
0F80
0F80
0F80
0F80
0F80
0F80
ENDCHAR
STARTCHAR daggerdbl
ENCODING 8225
SWIDTH 452 0
DWIDTH 16 0
BBX 14 33 1 -4
BITMAP
07C0
07C0
07C0
07C0
07C0
07C0
07C0
FFFC
FFFC
FFFC
FFFC
07C0
07C0
07C0
07C0
07C0
07C0
07C0
07C0
07C0
07C0
FFFC
FFFC
FFFC
FFFC
FFFC
07C0
07C0
07C0
07C0
07C0
07C0
07C0
ENDCHAR
STARTCHAR bullet
ENCODING 8226
SWIDTH 354 0
DWIDTH 13 0
BBX 7 8 3 9
BITMAP
38
7C
FE
FE
FE
FE
7C
38
ENDCHAR
STARTCHAR ellipsis
ENCODING 8230
SWIDTH 789 0
DWIDTH 28 0
BBX 25 6 2 -1
BITMAP
70180E00
F83E1F00
FC7E1F80
FC7E1F80
F87E1F00
783C0F00
ENDCHAR
STARTCHAR perthousand
ENCODING 8240
SWIDTH 998 0
DWIDTH 36 0
BBX 34 26 1 0
BITMAP
0400000000
3F80F00000
7FC0E00000
7FC1E00000
71C3C00000
F1C3C00000
F1E7800000
F1E7800000
71CF000000
7BCF000000
7FDE000000
3F9C000000
1F3C000000
0038000000
007BF03F00
00F7F87F80
00F7FCFF80
01E71CF380
01EF1CE3C0
03CF1CE3C0
03CF1CE3C0
078F1CE3C0
07073CF380
0F07FCFF80
1E07F87F80
1E03F03F00
ENDCHAR
STARTCHAR guilsinglleft
ENCODING 8249
SWIDTH 403 0
DWIDTH 15 0
BBX 12 17 1 1
BITMAP
00C0
01E0
03F0
07E0
0FC0
1F80
3F00
7E00
FC00
FE00
7F00
3F80
0FC0
07E0
03F0
01E0
00C0
ENDCHAR
STARTCHAR guilsinglright
ENCODING 8250
SWIDTH 402 0
DWIDTH 15 0
BBX 11 18 2 0
BITMAP
2000
7000
F800
FC00
7E00
3F00
1F80
0FC0
07E0
07E0
0FC0
1F80
3F00
FE00
FC00
F800
7000
2000
ENDCHAR
STARTCHAR fraction
ENCODING 8260
SWIDTH 477 0
DWIDTH 17 0
BBX 17 25 0 0
BITMAP
000780
000700
000F00
000E00
001E00
003C00
003C00
007800
007800
00F000
00F000
01E000
01C000
03C000
038000
078000
0F0000
0F0000
1E0000
1E0000
3C0000
380000
780000
700000
F00000
ENDCHAR
STARTCHAR Euro
ENCODING 8364
SWIDTH 806 0
DWIDTH 29 0
BBX 26 27 1 -1
BITMAP
00006000
0007FE00
001FFF80
003FFFC0
007FFFC0
00FFFF80
01FC0380
03F80100
3FFF8000
3FFF8000
3FFF8000
3FFF8000
3FFF0000
07C00000
7FFF0000
7FFF0000
7FFE0000
FFFE0000
FFFE0000
03F80100
01FC0380
00FFFF80
007FFFC0
003FFFC0
001FFF80
0007FE00
00006000
ENDCHAR
STARTCHAR trademark
ENCODING 8482
SWIDTH 606 0
DWIDTH 22 0
BBX 18 9 2 16
BITMAP
FE7F80
FE7F80
18CCC0
18CCC0
18CCC0
18CCC0
18CCC0
18CCC0
18CCC0
ENDCHAR
STARTCHAR partialdiff
ENCODING 8706
SWIDTH 609 0
DWIDTH 22 0
BBX 20 27 1 0
BITMAP
01F800
00FC00
007C00
007E00
003E00
003F00
001F00
000F80
03FF80
0FFFC0
1FFFC0
3FFFC0
7F9FE0
7E07E0
7C03E0
F803E0
F801E0
F801F0
F801E0
FC03E0
7C03E0
7E07E0
3FFFC0
3FFFC0
1FFF80
0FFE00
03FC00
ENDCHAR
STARTCHAR product
ENCODING 8719
SWIDTH 632 0
DWIDTH 23 0
BBX 21 25 1 0
BITMAP
FFFFF8
FFFFF8
FFFFF8
FFFFF8
FFFFF8
0F8F80
0F8F80
0F8F80
0F8F80
0F8F80
0F8F80
0F8F80
0F8F80
0F8F80
0F8F80
0F8F80
0F8F80
0F8F80
0F8F80
0F8F80
0F8F80
0F8F80
0F8F80
0F8F80
0F8F80
ENDCHAR
STARTCHAR minus
ENCODING 8722
SWIDTH 543 0
DWIDTH 20 0
BBX 15 5 2 10
BITMAP
FFFE
FFFE
FFFE
FFFE
FFFE
ENDCHAR
STARTCHAR infinity
ENCODING 8734
SWIDTH 771 0
DWIDTH 28 0
BBX 24 16 2 4
BITMAP
0F81E0
3FE7F8
7FFFFC
7FFFFE
FFFFFF
F8FE3F
F07C1F
F07C0F
F03C0F
F83E1F
F87F1F
FFFFFF
7FFFFE
7FFFFC
3FE7FC
0F81F0
ENDCHAR
STARTCHAR approxequal
ENCODING 8776
SWIDTH 476 0
DWIDTH 17 0
BBX 13 15 2 5
BITMAP
3C38
7E78
FF78
FFF8
FFF8
F1F0
70E0
0000
3C78
7E78
FFF8
FFF8
F3F0
F1F0
7800
ENDCHAR
STARTCHAR notequal
ENCODING 8800
SWIDTH 512 0
DWIDTH 18 0
BBX 15 22 2 1
BITMAP
0078
00F8
00F8
00F0
FFFE
FFFE
FFFE
FFFE
FFFE
07C0
07C0
FFFE
FFFE
FFFE
FFFE
FFFE
1E00
3E00
3C00
3C00
7C00
7800
ENDCHAR
STARTCHAR fi
ENCODING 64257
SWIDTH 650 0
DWIDTH 23 0
BBX 21 28 1 0
BITMAP
01FC00
03FCF0
0FFDF8
0FFDF8
1FFDF8
1F01F8
3E00F0
3E0000
3E0000
FFFFF8
FFFFF8
FFFFF8
FFFFF8
FFFFF8
3E00F8
3E00F8
3E00F8
3E00F8
3E00F8
3E00F8
3E00F8
3E00F8
3E00F8
3E00F8
3E00F8
3E00F8
3E00F8
3E00F8
ENDCHAR
STARTCHAR fl
ENCODING 64258
SWIDTH 631 0
DWIDTH 23 0
BBX 20 28 1 0
BITMAP
01FFF0
03FFF0
0FFFF0
0FFFF0
1FFFF0
1F01F0
3E01F0
3E01F0
3E01F0
FFF9F0
FFF9F0
FFF9F0
FFF9F0
FFF9F0
3E01F0
3E01F0
3E01F0
3E01F0
3E01F0
3E01F0
3E01F0
3E01F0
3E01F0
3E01F0
3E01F0
3E01F0
3E01F0
3E01F0
ENDCHAR
STARTCHAR .notdef
ENCODING -1
SWIDTH 279 0
DWIDTH 10 0
BBX 1 1 0 0
BITMAP
00
ENDCHAR
STARTCHAR .null
ENCODING -1
SWIDTH 0 0
DWIDTH 0 0
BBX 1 1 0 0
BITMAP
00
ENDCHAR
STARTCHAR nonmarkingreturn
ENCODING -1
SWIDTH 279 0
DWIDTH 10 0
BBX 1 1 0 0
BITMAP
00
ENDCHAR
ENDFONT
